<svg width="39.412231" height="40.269043" viewBox="0 0 39.4122 40.269" fill="none" xmlns="http://www.w3.org/2000/svg" xmlns:xlink="http://www.w3.org/1999/xlink">
	<desc>
			Created with Pixso.
	</desc>
	<defs>
		<clipPath id="clip653_540">
			<rect id="discord_icon_130958 1" rx="4.000000" width="39.412254" height="40.269039" fill="white" fill-opacity="0"/>
		</clipPath>
	</defs>
	<rect id="discord_icon_130958 1" rx="4.000000" width="39.412254" height="40.269039" fill="#FFFFFF" fill-opacity="0"/>
	<g clip-path="url(#clip653_540)">
		<path id="Vector" d="M39.4008 0L0.0115967 0C0.00512695 0 0 0.00527954 0 0.0118103L0 40.2573C0 40.2637 0.00524902 40.2689 0.0115967 40.269L39.4008 40.269C39.407 40.269 39.4121 40.2637 39.4122 40.2573L39.4122 0.0118103C39.4122 0.00527954 39.4071 0 39.4008 0Z" fill="#7289DA" fill-opacity="1.000000" fill-rule="evenodd"/>
		<path id="Vector" d="M26.6339 30.831L25.0175 28.8647C28.1735 27.9996 29.4052 25.7974 29.4052 25.7974C25.4023 29.6512 14.4716 29.8085 10.2378 25.7974C10.2378 25.7974 11.3154 27.8423 14.5486 28.8647L12.7781 30.831C7.38965 30.7524 5.31128 27.0558 5.31128 27.0558C5.31128 18.8762 8.85217 12.3481 8.85217 12.3481C12.4701 9.75269 15.7802 9.75269 15.7802 9.75269L16.0111 10.0673C11.5464 11.3257 9.62195 13.3706 9.62195 13.3706C14.8564 9.75269 25.6332 10.0673 29.8669 13.3706C29.944 13.2919 27.3267 11.1684 23.2469 10.0673L23.6318 9.75269C23.6318 9.75269 26.9419 9.75269 30.5598 12.3481C30.5598 12.3481 34.1007 18.8762 34.1007 27.0558C34.1007 27.0558 32.0223 30.7524 26.6339 30.831Z" fill="#FFFFFF" fill-opacity="1.000000" fill-rule="nonzero"/>
		<path id="Vector" d="M17.6277 21.9435C17.6277 23.4638 16.4905 24.6963 15.0875 24.6963C13.6846 24.6963 12.5472 23.4638 12.5472 21.9435C12.5472 20.4232 13.6846 19.1907 15.0875 19.1907C16.4905 19.1907 17.6277 20.4232 17.6277 21.9435Z" fill="#7289DA" fill-opacity="1.000000" fill-rule="evenodd"/>
		<path id="Vector" d="M26.557 21.9435C26.557 23.4638 25.4198 24.6963 24.0168 24.6963C22.6139 24.6963 21.4766 23.4638 21.4766 21.9435C21.4766 20.4232 22.6139 19.1907 24.0168 19.1907C25.4198 19.1907 26.557 20.4232 26.557 21.9435Z" fill="#7289DA" fill-opacity="1.000000" fill-rule="evenodd"/>
	</g>
</svg>
