<svg width="462.000000" height="389.000000" viewBox="0 0 462 389" fill="none" xmlns="http://www.w3.org/2000/svg" xmlns:xlink="http://www.w3.org/1999/xlink">
	<desc>
			Created with Pixso.
	</desc>
	<defs>
		<clipPath id="clip685_839">
			<rect id="Frame" width="56.443439" height="100.000000" transform="translate(3.135742 200.249023)" fill="white" fill-opacity="0"/>
		</clipPath>
		<clipPath id="clip685_795">
			<rect id="Frame" width="462.000000" height="389.000000" fill="white" fill-opacity="0"/>
		</clipPath>
	</defs>
	<rect id="Frame" width="462.000000" height="389.000000" fill="#FFFFFF" fill-opacity="0"/>
	<g clip-path="url(#clip685_795)">
		<path id="Vector" d="M366.396 351.154C366.396 361.694 284.308 370.317 183.198 370.317C82.0889 370.317 0 361.694 0 351.154C0 340.615 82.0889 331.992 183.198 331.992C284.308 331.992 366.396 340.615 366.396 351.154Z" fill="#D0CFD9" fill-opacity="1.000000" fill-rule="nonzero"/>
		<path id="Vector" d="M389.921 193.542C389.921 277.857 318.845 345.884 230.749 345.884C142.654 345.884 71.5767 277.857 71.5767 193.542C71.5767 109.227 142.654 41.1995 230.749 41.1995C318.344 41.1995 389.921 109.706 389.921 193.542Z" fill="#A9E8EF" fill-opacity="1.000000" fill-rule="nonzero"/>
		<path id="Vector" d="M186.198 47.4272C186.198 47.4272 150.159 66.5898 171.683 73.2966C193.206 80.0037 215.73 70.9014 238.755 83.8362C262.28 96.7708 268.287 104.436 255.773 121.203C242.759 137.97 218.233 151.384 241.758 167.193C265.284 182.523 254.772 213.183 274.294 220.369C293.814 228.034 305.327 215.579 323.347 194.021C341.366 172.463 344.87 143.719 351.377 126.952C357.884 110.185 359.386 103.957 359.386 103.957C359.386 103.957 300.321 19.1626 186.198 47.4272Z" fill="#80D2D6" fill-opacity="1.000000" fill-rule="nonzero"/>
		<path id="Vector" d="M85.0903 131.742C85.0903 131.742 108.115 112.101 114.623 116.413C121.129 120.724 134.644 123.119 138.148 143.719C141.151 164.319 120.629 175.816 140.65 188.272C160.672 200.728 180.694 217.495 174.187 233.304C167.68 249.592 167.68 269.234 164.677 286.48C161.673 303.727 147.658 323.368 147.658 323.368C147.658 323.368 30.5312 261.569 85.0903 131.742Z" fill="#80D2D6" fill-opacity="1.000000" fill-rule="nonzero"/>
		<path id="Vector" d="M194.209 342.052C194.209 342.052 192.708 302.769 213.23 308.038C233.252 312.829 235.754 327.68 244.264 320.015C252.772 311.871 255.776 290.792 269.291 287.438C282.806 283.606 295.819 291.271 311.336 282.648C326.854 274.025 352.881 264.923 358.888 265.881C364.895 267.318 361.891 280.732 361.891 280.732C361.891 280.732 304.329 366.484 194.209 342.052Z" fill="#80D2D6" fill-opacity="1.000000" fill-rule="nonzero"/>
		<path id="Vector" d="M211.73 46.4692C211.73 72.3386 189.707 92.9385 163.178 92.9385C136.149 92.9385 114.625 71.8596 114.625 46.4692C114.625 21.0789 136.149 0 163.178 0C190.207 0 211.73 21.0789 211.73 46.4692Z" fill="#F3A43D" fill-opacity="1.000000" fill-rule="nonzero"/>
		<path id="Vector" d="M209.228 46.4692C209.228 70.9014 188.706 90.543 163.178 90.543C137.65 90.543 117.128 70.9014 117.128 46.4692C117.128 22.0369 137.65 2.39526 163.178 2.39526C188.706 2.39526 209.228 22.0369 209.228 46.4692Z" fill="#FED150" fill-opacity="1.000000" fill-rule="nonzero"/>
		<path id="Vector" d="M199.719 46.4692C199.719 65.6318 183.201 81.4409 163.18 81.4409C143.158 81.4409 126.64 65.6318 126.64 46.4692C126.64 27.3066 143.158 11.4976 163.18 11.4976C183.201 11.9766 199.719 27.3066 199.719 46.4692Z" fill="#F3A43D" fill-opacity="1.000000" fill-rule="nonzero"/>
		<path id="Vector" d="M198.217 47.9062C198.217 66.1108 182.7 81.4409 163.179 81.4409C144.158 81.4409 128.141 66.5898 128.141 47.9062C128.141 29.7019 143.658 14.3718 163.179 14.3718C182.2 14.8508 198.217 29.7019 198.217 47.9062Z" fill="#FFE984" fill-opacity="1.000000" fill-rule="nonzero"/>
		<path id="Vector" d="M355.2 258.378C382.013 258.724 403.48 279.807 403.149 305.469C402.819 331.131 380.816 351.654 354.004 351.308C327.192 350.963 305.725 329.88 306.055 304.218C306.386 278.556 328.389 258.033 355.2 258.378Z" fill="#F3A43D" fill-opacity="1.000000" fill-rule="evenodd"/>
		<path id="Vector" d="M400.935 304.685C400.935 329.117 380.412 348.759 354.885 348.759C329.357 348.759 308.835 329.117 308.835 304.685C308.835 280.252 329.357 260.611 354.885 260.611C379.912 260.611 400.935 280.252 400.935 304.685Z" fill="#FED150" fill-opacity="1.000000" fill-rule="nonzero"/>
		<path id="Vector" d="M390.923 304.685C390.923 323.847 374.405 339.656 354.383 339.656C334.361 339.656 317.844 323.847 317.844 304.685C317.844 285.522 334.361 269.713 354.383 269.713C374.905 269.713 390.923 285.522 390.923 304.685Z" fill="#F3A43D" fill-opacity="1.000000" fill-rule="nonzero"/>
		<path id="Vector" d="M389.425 306.122C389.425 324.327 373.907 339.656 354.387 339.656C334.865 339.656 319.349 324.806 319.349 306.122C319.349 287.918 334.865 272.588 354.387 272.588C373.907 272.588 389.425 287.439 389.425 306.122Z" fill="#FFE984" fill-opacity="1.000000" fill-rule="nonzero"/>
		<path id="Vector" d="M426.964 101.561C426.964 111.143 420.457 116.412 413.449 116.412C405.941 116.412 399.935 111.143 399.935 102.041C399.935 93.8962 405.44 87.1895 413.449 87.1895C421.958 87.6685 426.964 93.4172 426.964 101.561ZM408.443 102.041C408.443 106.831 409.945 110.664 413.449 110.664C416.452 110.664 418.455 107.31 418.455 102.041C418.455 97.2498 416.953 93.4172 413.449 93.4172C409.945 93.4172 408.443 97.2498 408.443 102.041ZM413.95 136.054L441.98 87.6685L447.986 87.6685L419.956 136.054L413.95 136.054ZM462.002 121.203C462.002 131.263 455.495 136.054 448.487 136.054C440.979 136.054 434.973 130.784 434.973 121.682C434.973 113.538 440.479 106.831 448.487 106.831C457.497 107.31 462.002 113.059 462.002 121.203ZM443.982 121.682C443.982 126.473 445.483 130.305 448.987 130.305C451.991 130.305 453.993 126.952 453.993 121.682C453.993 116.891 452.491 113.059 448.987 113.059C445.483 113.059 443.982 116.891 443.982 121.682Z" fill="#A9E8EF" fill-opacity="1.000000" fill-rule="nonzero"/>
		<path id="Vector" d="M48.0527 62.7571C48.0527 72.3384 41.5454 77.6082 34.5381 77.6082C27.0298 77.6082 21.0234 72.3384 21.0234 63.2363C21.0234 55.092 26.5293 48.3853 34.5381 48.3853C43.5479 48.3853 48.0527 54.613 48.0527 62.7571ZM29.5327 63.2363C29.5327 68.0269 31.0342 71.8594 34.5381 71.8594C37.5415 71.8594 39.5435 68.5059 39.5435 63.2363C39.5435 58.4456 38.042 54.613 34.5381 54.613C31.0342 54.613 29.5327 58.4456 29.5327 63.2363ZM35.0386 97.2498L63.0688 48.8643L69.0757 48.8643L41.0449 97.2498L35.0386 97.2498ZM83.5913 81.9197C83.5913 91.98 77.084 96.7708 70.0767 96.7708C62.5684 96.7708 56.562 91.501 56.562 82.3989C56.562 74.2546 62.0679 67.5479 70.0767 67.5479C78.5859 68.0269 83.5913 74.2546 83.5913 81.9197ZM65.0713 82.3989C65.0713 87.1895 66.5728 91.022 70.0767 91.022C73.0796 91.022 75.082 87.6685 75.082 82.3989C75.082 77.6082 73.5801 73.7756 70.0767 73.7756C66.5728 74.2546 65.0713 78.0872 65.0713 82.3989Z" fill="#A9E8EF" fill-opacity="1.000000" fill-rule="nonzero"/>
		<path id="Vector" d="M101.609 325.764L200.717 283.606L357.887 54.6135L344.372 47.4275L190.706 267.797L101.609 325.764Z" fill="#D8D845" fill-opacity="1.000000" fill-rule="nonzero"/>
		<path id="Vector" d="M298.824 61.3203L341.37 65.6318L358.89 93.8965L358.89 91.0222L367.899 31.1392L298.824 61.3203Z" fill="#D8D845" fill-opacity="1.000000" fill-rule="nonzero"/>
		<path id="Vector" d="M223.244 204.082C223.244 204.082 237.259 214.621 231.753 214.142C226.247 213.663 221.742 213.184 218.238 205.519L223.244 204.082Z" fill="#EFC18F" fill-opacity="1.000000" fill-rule="nonzero"/>
		<path id="Vector" d="M228.749 124.078C228.749 121.203 227.247 114.976 221.741 117.85C212.231 122.641 200.218 154.259 199.717 161.924C199.217 169.589 218.738 206.477 218.738 206.477C218.738 206.477 223.243 207.914 224.745 203.602L211.73 161.924C211.23 161.924 229.25 134.138 228.749 124.078Z" fill="#9991E2" fill-opacity="1.000000" fill-rule="nonzero"/>
		<path id="Vector" d="M215.735 364.089L216.235 372.233L207.726 370.796L207.226 360.256L215.735 364.089Z" fill="#FFD9A7" fill-opacity="1.000000" fill-rule="nonzero"/>
		<path id="Vector" d="M271.293 356.903L271.794 365.047L263.285 363.61L262.784 352.592L271.293 356.903Z" fill="#FFD9A7" fill-opacity="1.000000" fill-rule="nonzero"/>
		<path id="Vector" d="M271.295 361.693C271.295 361.693 267.291 366.484 262.285 363.131C262.285 363.131 256.779 377.502 266.79 378.461C277.302 379.419 295.821 375.586 297.823 371.275C300.827 365.047 283.809 362.651 271.295 361.693Z" fill="#6B5A84" fill-opacity="1.000000" fill-rule="nonzero"/>
		<path id="Vector" d="M215.734 370.317C215.734 370.317 210.729 373.67 206.725 368.879C206.725 368.879 196.713 380.856 206.224 385.167C215.734 389.479 234.254 391.395 237.758 387.563C242.763 382.293 227.747 374.628 215.734 370.317Z" fill="#6B5A84" fill-opacity="1.000000" fill-rule="nonzero"/>
		<path id="Vector" d="M231.251 98.208C231.251 98.208 236.256 109.227 232.752 116.412C230.25 121.203 252.273 135.096 251.272 128.868C250.271 121.203 245.767 116.412 249.771 107.31L231.251 98.208Z" fill="#EFC18F" fill-opacity="1.000000" fill-rule="nonzero"/>
		<path id="Vector" d="M248.269 78.0876C255.276 84.3154 261.783 104.915 254.775 111.143C251.772 114.017 240.26 117.85 231.751 105.873C228.247 101.083 223.742 91.5015 228.748 82.3992C230.75 78.0876 239.759 70.9016 248.269 78.0876Z" fill="#FFD9A8" fill-opacity="1.000000" fill-rule="nonzero"/>
		<path id="Vector" d="M259.781 80.4829C259.781 80.4829 256.777 85.2734 245.766 87.1897C234.754 89.106 237.757 91.9805 239.259 94.3757C242.763 101.562 235.254 99.1665 239.259 107.79C243.263 116.413 230.249 108.269 229.248 107.311C228.247 105.873 218.236 95.813 224.243 82.8782C229.749 69.9436 249.77 73.7761 259.781 80.4829Z" fill="#9B4D34" fill-opacity="1.000000" fill-rule="nonzero"/>
		<path id="Vector" d="M247.77 200.249L237.258 284.564C237.258 284.564 231.251 345.885 222.242 365.526C220.24 369.838 205.223 369.359 203.722 364.568C195.713 341.094 210.729 266.36 210.729 266.36L213.732 200.728L247.77 200.728L247.77 200.249Z" fill="#52456B" fill-opacity="1.000000" fill-rule="nonzero"/>
		<path id="Vector" d="M231.253 200.249C216.737 217.016 248.271 286.001 248.271 286.001C248.271 286.001 246.269 339.177 257.781 354.507C260.284 357.861 275.801 358.34 276.802 354.507C283.31 331.991 276.802 274.025 276.802 274.025L270.295 200.249L247.771 200.249C247.771 200.249 233.755 197.374 231.253 200.249Z" fill="#675781" fill-opacity="1.000000" fill-rule="nonzero"/>
		<path id="Vector" d="M254.776 121.683C264.788 129.827 272.796 148.51 274.298 208.872C274.799 222.286 211.229 219.412 211.229 205.998C211.73 170.547 201.719 159.05 213.732 127.91C217.737 119.287 235.256 105.874 254.776 121.683Z" fill="#E66254" fill-opacity="1.000000" fill-rule="nonzero"/>
		<path id="Vector" d="M325.854 89.5854C325.854 89.5854 329.358 71.8601 331.36 77.1296C333.863 82.3994 335.365 86.7109 329.358 93.418L325.854 89.5854Z" fill="#EFC18F" fill-opacity="1.000000" fill-rule="nonzero"/>
		<path id="Vector" d="M245.267 123.12C242.263 124.557 236.757 128.868 242.764 132.701C252.274 138.929 288.813 134.617 296.321 131.264C303.83 127.91 330.859 92.9387 330.859 92.9387C330.859 92.9387 329.857 88.1479 325.353 89.1062L290.815 120.724C290.815 120.724 254.776 118.329 245.267 123.12Z" fill="#9991E2" fill-opacity="1.000000" fill-rule="nonzero"/>
		<rect id="Frame" width="56.443439" height="100.000000" transform="translate(3.135742 200.249023)" fill="#FFFFFF" fill-opacity="0"/>
		<g clip-path="url(#clip685_839)">
			<path id="Vector" d="M24.728 300.249L24.728 288.78C16.394 288.421 8.06055 286.271 3.13574 283.403L6.92383 269.066C12.2275 271.934 19.8037 274.443 27.7588 274.443C34.9561 274.443 39.8809 271.575 39.8809 266.916C39.8809 262.256 35.7139 259.389 26.6221 256.163C12.9849 251.862 3.89355 245.769 3.89355 233.941C3.89355 223.188 11.8486 214.586 25.1069 212.077L25.1069 200.249L37.6079 200.249L37.6079 211.002C45.9419 211.36 51.624 213.152 55.791 214.944L52.3818 228.923C48.9722 227.489 43.29 224.622 34.1987 224.622C25.8647 224.622 23.2129 228.206 23.2129 231.432C23.2129 235.375 27.7588 237.884 38.3657 241.826C53.5181 246.844 59.5791 253.654 59.5791 264.765C59.5791 275.518 51.624 284.837 37.229 287.346L37.229 299.891L24.728 299.891L24.728 300.249Z" fill="#80D2D6" fill-opacity="1.000000" fill-rule="nonzero"/>
		</g>
		<path id="Vector" d="M148.678 54.4053L158.897 54.4053L158.897 62.4326L148.678 62.4326L148.678 54.4053Z" fill="#F3A43D" fill-opacity="1.000000" fill-rule="evenodd"/>
		<path id="Vector" d="M148.678 38.7886L158.897 38.7886L158.897 46.2688L148.678 46.2688L148.678 38.7886Z" fill="#F3A43D" fill-opacity="1.000000" fill-rule="evenodd"/>
		<path id="Vector" d="M171.325 52.5811C174.95 50.6106 177.022 47.1443 177.022 42.5103C177.056 35.1396 171.67 30.4692 163.247 30.4692L148.678 30.4692L148.678 38.7886L158.897 38.7886L162.625 38.7886C165.422 38.7886 166.768 40.2114 166.768 42.5469C166.768 44.8821 165.422 46.3049 162.625 46.3049L158.897 46.3049L148.678 46.3049L148.678 54.4419L158.897 54.4419L161.659 54.4419L166.803 62.4692L177.678 62.4692L171.325 52.5811Z" fill="#F3A43D" fill-opacity="1.000000" fill-rule="nonzero"/>
		<path id="Vector" d="M150.328 52.9548L160.547 52.9548L160.547 60.9822L150.328 60.9822L150.328 52.9548Z" fill="#FED150" fill-opacity="1.000000" fill-rule="evenodd"/>
		<path id="Vector" d="M150.328 37.2375L160.547 37.2375L160.547 44.9932L150.328 44.9932L150.328 37.2375Z" fill="#FED150" fill-opacity="1.000000" fill-rule="evenodd"/>
		<path id="Vector" d="M172.976 51.1304C176.601 49.1599 178.672 45.6936 178.672 41.0596C178.707 33.689 173.321 29.0186 164.897 29.0186L150.328 29.0186L150.328 37.3379L160.547 37.3379L164.276 37.3379C167.072 37.3379 168.418 38.7607 168.418 41.0962C168.418 43.4314 167.072 44.8542 164.276 44.8542L160.547 44.8542L150.328 44.8542L150.328 52.9912L160.547 52.9912L163.309 52.9912L168.453 61.0186L179.328 61.0186L172.976 51.1304Z" fill="#FED150" fill-opacity="1.000000" fill-rule="nonzero"/>
		<path id="Vector" d="M339.277 313.505L349.496 313.505L349.496 321.532L339.277 321.532L339.277 313.505Z" fill="#F3A43D" fill-opacity="1.000000" fill-rule="evenodd"/>
		<path id="Vector" d="M339.277 297.888L349.496 297.888L349.496 305.368L339.277 305.368L339.277 297.888Z" fill="#F3A43D" fill-opacity="1.000000" fill-rule="evenodd"/>
		<path id="Vector" d="M361.925 311.681C365.55 309.71 367.621 306.244 367.621 301.61C367.656 294.239 362.271 289.569 353.847 289.569L339.277 289.569L339.277 297.888L349.496 297.888L353.225 297.888C356.021 297.888 357.368 299.311 357.368 301.646C357.368 303.982 356.021 305.405 353.225 305.405L349.496 305.405L339.277 305.405L339.277 313.542L349.496 313.542L352.258 313.542L357.402 321.569L368.277 321.569L361.925 311.681Z" fill="#F3A43D" fill-opacity="1.000000" fill-rule="nonzero"/>
		<path id="Vector" d="M340.928 312.054L351.146 312.054L351.146 320.082L340.928 320.082L340.928 312.054Z" fill="#FED150" fill-opacity="1.000000" fill-rule="evenodd"/>
		<path id="Vector" d="M340.928 296.337L351.146 296.337L351.146 304.093L340.928 304.093L340.928 296.337Z" fill="#FED150" fill-opacity="1.000000" fill-rule="evenodd"/>
		<path id="Vector" d="M363.575 310.23C367.2 308.26 369.271 304.793 369.271 300.159C369.307 292.789 363.921 288.118 355.497 288.118L340.928 288.118L340.928 296.438L351.146 296.438L354.875 296.438C357.672 296.438 359.019 297.86 359.019 300.196C359.019 302.531 357.672 303.954 354.875 303.954L351.146 303.954L340.928 303.954L340.928 312.091L351.146 312.091L353.908 312.091L359.053 320.118L369.928 320.118L363.575 310.23Z" fill="#FED150" fill-opacity="1.000000" fill-rule="nonzero"/>
	</g>
</svg>
