<svg width="1375.000000" height="272.261963" viewBox="0 0 1375 272.262" fill="none" xmlns="http://www.w3.org/2000/svg" xmlns:xlink="http://www.w3.org/1999/xlink">
	<desc>
			Created with Pixso.
	</desc>
	<defs/>
	<rect id="Frame 190" width="1375.000000" height="266.000000" fill="#FFFFFF" fill-opacity="0"/>
	<path id="Vector 8" d="M203.118 62L0 62L71.8823 134L0 206L203.118 206L275 134L203.118 62Z" fill="#A790C6" fill-opacity="1.000000" fill-rule="nonzero"/>
	<path id="Vector 8" d="M203.118 62L275 134L203.118 206L0 206L71.8823 134L0 62L203.118 62Z" stroke="#000000" stroke-opacity="0" stroke-width="3.000000"/>
	<path id="Vector 9" d="M275 62L478.118 62L550 134L478.118 206L275 206L346.882 134L275 62Z" fill="#A790C6" fill-opacity="1.000000" fill-rule="evenodd"/>
	<path id="Vector 10" d="M550 62L753.118 62L825 134L753.118 206L550 206L621.882 134L550 62Z" fill="#A790C6" fill-opacity="1.000000" fill-rule="evenodd"/>
	<path id="Vector 11" d="M825 62L1028.12 62L1100 134L1028.12 206L825 206L896.882 134L825 62Z" fill="#A790C6" fill-opacity="1.000000" fill-rule="evenodd"/>
	<path id="Vector 12" d="M1100 61.6348L1303.12 61.6348L1375 133.635L1303.12 205.635L1100 205.635L1171.88 133.635L1100 61.6348Z" fill="#A790C6" fill-opacity="1.000000" fill-rule="evenodd"/>
	<path id="Регистрация" d="M53.872 6.896C55.456 6.896 56.776 7.424 57.832 8.48C58.904 9.536 59.44 10.848 59.44 12.416C59.44 13.968 58.904 15.28 57.832 16.352C56.776 17.408 55.456 17.936 53.872 17.936L50.44 17.936L50.44 23.696L47.68 23.696L47.68 6.896L53.872 6.896ZM53.872 15.344C54.688 15.344 55.36 15.072 55.888 14.528C56.416 13.968 56.68 13.264 56.68 12.416C56.68 11.568 56.416 10.872 55.888 10.328C55.36 9.768 54.688 9.488 53.872 9.488L50.44 9.488L50.44 15.344L53.872 15.344ZM62.8645 18.8C63.0565 19.712 63.4965 20.416 64.1845 20.912C64.8725 21.392 65.7125 21.632 66.7045 21.632C68.0805 21.632 69.1125 21.136 69.8005 20.144L71.9365 21.392C70.7525 23.136 69.0005 24.008 66.6805 24.008C64.7285 24.008 63.1525 23.416 61.9525 22.232C60.7525 21.032 60.1525 19.52 60.1525 17.696C60.1525 15.904 60.7445 14.408 61.9285 13.208C63.1125 11.992 64.6325 11.384 66.4885 11.384C68.2485 11.384 69.6885 12 70.8085 13.232C71.9445 14.464 72.5125 15.96 72.5125 17.72C72.5125 17.992 72.4805 18.352 72.4165 18.8L62.8645 18.8ZM62.8405 16.688L69.8965 16.688C69.7205 15.712 69.3125 14.976 68.6725 14.48C68.0485 13.984 67.3125 13.736 66.4645 13.736C65.5045 13.736 64.7045 14 64.0645 14.528C63.4245 15.056 63.0165 15.776 62.8405 16.688ZM82.8333 11.696L82.8333 14.192L77.3853 14.192L77.3853 23.696L74.7933 23.696L74.7933 11.696L82.8333 11.696ZM93.2781 11.696L95.2701 11.696L95.2701 23.696L92.7261 23.696L92.7261 16.064L86.5821 23.696L84.5901 23.696L84.5901 11.696L87.1341 11.696L87.1341 19.304L93.2781 11.696ZM103.942 24.008C102.134 24.008 100.622 23.4 99.4056 22.184C98.2056 20.968 97.6056 19.472 97.6056 17.696C97.6056 15.904 98.2056 14.408 99.4056 13.208C100.622 11.992 102.134 11.384 103.942 11.384C105.11 11.384 106.174 11.664 107.134 12.224C108.094 12.784 108.814 13.536 109.294 14.48L107.062 15.776C106.79 15.2 106.374 14.752 105.814 14.432C105.27 14.096 104.638 13.928 103.918 13.928C102.862 13.928 101.974 14.288 101.254 15.008C100.55 15.728 100.198 16.624 100.198 17.696C100.198 18.768 100.55 19.664 101.254 20.384C101.974 21.104 102.862 21.464 103.918 21.464C104.622 21.464 105.254 21.296 105.814 20.96C106.39 20.624 106.822 20.176 107.11 19.616L109.342 20.888C108.83 21.848 108.094 22.608 107.134 23.168C106.174 23.728 105.11 24.008 103.942 24.008ZM120.266 11.696L120.266 14.192L116.354 14.192L116.354 23.696L113.762 23.696L113.762 14.192L109.826 14.192L109.826 11.696L120.266 11.696ZM128.812 11.384C130.46 11.384 131.868 12 133.036 13.232C134.204 14.448 134.788 15.936 134.788 17.696C134.788 19.472 134.204 20.968 133.036 22.184C131.868 23.4 130.46 24.008 128.812 24.008C126.988 24.008 125.588 23.336 124.612 21.992L124.612 28.496L122.02 28.496L122.02 11.696L124.612 11.696L124.612 13.424C125.588 12.064 126.988 11.384 128.812 11.384ZM125.692 20.456C126.412 21.176 127.316 21.536 128.404 21.536C129.492 21.536 130.396 21.176 131.116 20.456C131.836 19.72 132.196 18.8 132.196 17.696C132.196 16.592 131.836 15.68 131.116 14.96C130.396 14.224 129.492 13.856 128.404 13.856C127.316 13.856 126.412 14.224 125.692 14.96C124.972 15.68 124.612 16.592 124.612 17.696C124.612 18.8 124.972 19.72 125.692 20.456ZM146.641 11.696L149.233 11.696L149.233 23.696L146.641 23.696L146.641 21.968C145.665 23.328 144.265 24.008 142.441 24.008C140.793 24.008 139.385 23.4 138.217 22.184C137.049 20.952 136.465 19.456 136.465 17.696C136.465 15.92 137.049 14.424 138.217 13.208C139.385 11.992 140.793 11.384 142.441 11.384C144.265 11.384 145.665 12.056 146.641 13.4L146.641 11.696ZM140.137 20.456C140.857 21.176 141.761 21.536 142.849 21.536C143.937 21.536 144.841 21.176 145.561 20.456C146.281 19.72 146.641 18.8 146.641 17.696C146.641 16.592 146.281 15.68 145.561 14.96C144.841 14.224 143.937 13.856 142.849 13.856C141.761 13.856 140.857 14.224 140.137 14.96C139.417 15.68 139.057 16.592 139.057 17.696C139.057 18.8 139.417 19.72 140.137 20.456ZM162.574 21.248L164.542 21.248L164.542 26.912L161.998 26.912L161.998 23.696L152.254 23.696L152.254 11.696L154.846 11.696L154.846 21.248L159.982 21.248L159.982 11.696L162.574 11.696L162.574 21.248ZM175.333 11.696L177.325 11.696L177.325 23.696L174.781 23.696L174.781 16.064L168.637 23.696L166.645 23.696L166.645 11.696L169.189 11.696L169.189 19.304L175.333 11.696ZM189.62 11.696L189.62 23.696L187.076 23.696L187.076 19.664L185.636 19.664L182.588 23.696L179.54 23.696L182.78 19.424C181.948 19.152 181.276 18.672 180.764 17.984C180.268 17.296 180.02 16.528 180.02 15.68C180.02 14.576 180.412 13.64 181.196 12.872C181.996 12.088 183.02 11.696 184.268 11.696L189.62 11.696ZM184.412 17.432L187.076 17.432L187.076 14.048L184.412 14.048C183.884 14.048 183.444 14.2 183.092 14.504C182.74 14.808 182.564 15.224 182.564 15.752C182.564 16.264 182.74 16.672 183.092 16.976C183.444 17.28 183.884 17.432 184.412 17.432Z" fill="#000000" fill-opacity="1.000000" fill-rule="evenodd"/>
	<path id="Vector" d="M177.414 133.207C177.414 111.037 159.377 93 137.207 93C115.037 93 97 111.037 97 133.207C97 144.292 101.508 154.344 108.788 161.622C108.824 161.656 108.855 161.692 108.895 161.723C116.164 168.945 126.173 173.414 137.207 173.414C148.075 173.414 157.94 169.073 165.184 162.043C165.223 162.005 165.268 161.971 165.304 161.93C172.768 154.627 177.414 144.451 177.414 133.207ZM137.207 96.4219C157.49 96.4219 173.992 112.924 173.992 133.207C173.992 142.21 170.73 150.456 165.339 156.857C163.372 142.658 155.253 138.624 147.447 137.51C152.686 134.131 156.169 128.259 156.169 121.576C156.169 111.12 147.662 102.614 137.207 102.614C126.751 102.614 118.245 111.12 118.245 121.576C118.245 128.249 121.716 134.115 126.941 137.494C118.085 138.547 114.006 142.497 109.226 157.024C103.75 150.602 100.422 142.292 100.422 133.207C100.422 112.924 116.924 96.4219 137.207 96.4219ZM137.167 137.115C128.616 137.092 121.667 130.132 121.667 121.576C121.667 113.008 128.637 106.036 137.207 106.036C145.777 106.036 152.747 113.008 152.747 121.576C152.747 130.129 145.802 137.085 137.256 137.113L137.167 137.115ZM111.914 159.848C117.981 140.553 121.764 140.538 136.823 140.538L137.169 140.536C137.183 140.536 137.195 140.538 137.207 140.538C137.224 140.538 137.239 140.536 137.254 140.536L138.576 140.53C148.49 140.449 160.828 140.352 162.23 160.091C155.661 166.212 146.877 169.992 137.207 169.992C127.407 169.992 118.513 166.116 111.914 159.848Z" fill="#F6F6F6" fill-opacity="1.000000" fill-rule="nonzero"/>
	<path id="Vector" d="M137.207 93C115.037 93 97 111.037 97 133.207C97 144.292 101.508 154.344 108.788 161.622C108.824 161.656 108.855 161.692 108.895 161.723C116.164 168.945 126.173 173.414 137.207 173.414C148.075 173.414 157.94 169.073 165.184 162.043C165.223 162.005 165.268 161.971 165.304 161.93C172.768 154.627 177.414 144.451 177.414 133.207C177.414 111.037 159.377 93 137.207 93ZM173.992 133.207C173.992 142.21 170.73 150.456 165.339 156.857C163.372 142.658 155.253 138.624 147.447 137.51C152.686 134.131 156.169 128.259 156.169 121.576C156.169 111.12 147.662 102.614 137.207 102.614C126.751 102.614 118.245 111.12 118.245 121.576C118.245 128.249 121.716 134.115 126.941 137.494C118.085 138.547 114.006 142.497 109.226 157.024C103.75 150.602 100.422 142.292 100.422 133.207C100.422 112.924 116.924 96.4219 137.207 96.4219C157.49 96.4219 173.992 112.924 173.992 133.207ZM121.667 121.576C121.667 113.008 128.637 106.036 137.207 106.036C145.777 106.036 152.747 113.008 152.747 121.576C152.747 130.129 145.802 137.085 137.256 137.113L137.167 137.115C128.616 137.092 121.667 130.132 121.667 121.576ZM136.823 140.538L137.169 140.536C137.183 140.536 137.195 140.538 137.207 140.538C137.224 140.538 137.239 140.536 137.254 140.536L138.576 140.53C148.49 140.449 160.828 140.352 162.23 160.091C155.661 166.212 146.877 169.992 137.207 169.992C127.407 169.992 118.513 166.116 111.914 159.848C117.981 140.553 121.764 140.538 136.823 140.538Z" stroke="#A790C6" stroke-opacity="1.000000" stroke-width="0.476676"/>
	<path id="Пополнение счета" d="M269.04 7.896L269.04 24.696L266.28 24.696L266.28 10.536L259.44 10.536L259.44 24.696L256.68 24.696L256.68 7.896L269.04 7.896ZM277.903 25.008C276.143 25.008 274.647 24.4 273.415 23.184C272.183 21.968 271.567 20.472 271.567 18.696C271.567 16.92 272.183 15.424 273.415 14.208C274.647 12.992 276.143 12.384 277.903 12.384C279.679 12.384 281.175 12.992 282.391 14.208C283.623 15.424 284.239 16.92 284.239 18.696C284.239 20.472 283.623 21.968 282.391 23.184C281.175 24.4 279.679 25.008 277.903 25.008ZM275.239 21.408C275.959 22.128 276.847 22.488 277.903 22.488C278.959 22.488 279.847 22.128 280.567 21.408C281.287 20.688 281.647 19.784 281.647 18.696C281.647 17.608 281.287 16.704 280.567 15.984C279.847 15.264 278.959 14.904 277.903 14.904C276.847 14.904 275.959 15.264 275.239 15.984C274.519 16.704 274.159 17.608 274.159 18.696C274.159 19.784 274.519 20.688 275.239 21.408ZM297.262 12.696L297.262 24.696L294.67 24.696L294.67 15.144L289.174 15.144L289.174 24.696L286.582 24.696L286.582 12.696L297.262 12.696ZM305.934 25.008C304.174 25.008 302.678 24.4 301.446 23.184C300.214 21.968 299.598 20.472 299.598 18.696C299.598 16.92 300.214 15.424 301.446 14.208C302.678 12.992 304.174 12.384 305.934 12.384C307.71 12.384 309.206 12.992 310.422 14.208C311.654 15.424 312.27 16.92 312.27 18.696C312.27 20.472 311.654 21.968 310.422 23.184C309.206 24.4 307.71 25.008 305.934 25.008ZM303.27 21.408C303.99 22.128 304.878 22.488 305.934 22.488C306.99 22.488 307.878 22.128 308.598 21.408C309.318 20.688 309.678 19.784 309.678 18.696C309.678 17.608 309.318 16.704 308.598 15.984C307.878 15.264 306.99 14.904 305.934 14.904C304.878 14.904 303.99 15.264 303.27 15.984C302.55 16.704 302.19 17.608 302.19 18.696C302.19 19.784 302.55 20.688 303.27 21.408ZM324.39 12.696L324.39 24.696L321.798 24.696L321.798 15.192L317.79 15.192L317.79 19.656C317.79 21.56 317.374 22.912 316.542 23.712C315.71 24.512 314.526 24.84 312.99 24.696L312.99 22.272C313.726 22.4 314.278 22.248 314.646 21.816C315.014 21.384 315.198 20.624 315.198 19.536L315.198 12.696L324.39 12.696ZM335.498 12.696L338.09 12.696L338.09 24.696L335.498 24.696L335.498 19.92L330.002 19.92L330.002 24.696L327.41 24.696L327.41 12.696L330.002 12.696L330.002 17.472L335.498 17.472L335.498 12.696ZM343.138 19.8C343.33 20.712 343.77 21.416 344.458 21.912C345.146 22.392 345.986 22.632 346.978 22.632C348.354 22.632 349.386 22.136 350.074 21.144L352.21 22.392C351.026 24.136 349.274 25.008 346.954 25.008C345.002 25.008 343.426 24.416 342.226 23.232C341.026 22.032 340.426 20.52 340.426 18.696C340.426 16.904 341.018 15.408 342.202 14.208C343.386 12.992 344.906 12.384 346.762 12.384C348.522 12.384 349.962 13 351.082 14.232C352.218 15.464 352.786 16.96 352.786 18.72C352.786 18.992 352.754 19.352 352.69 19.8L343.138 19.8ZM343.114 17.688L350.17 17.688C349.994 16.712 349.586 15.976 348.946 15.48C348.322 14.984 347.586 14.736 346.738 14.736C345.778 14.736 344.978 15 344.338 15.528C343.698 16.056 343.29 16.776 343.114 17.688ZM363.155 12.696L365.747 12.696L365.747 24.696L363.155 24.696L363.155 19.92L357.659 19.92L357.659 24.696L355.067 24.696L355.067 12.696L357.659 12.696L357.659 17.472L363.155 17.472L363.155 12.696ZM377.442 12.696L379.434 12.696L379.434 24.696L376.89 24.696L376.89 17.064L370.746 24.696L368.754 24.696L368.754 12.696L371.298 12.696L371.298 20.304L377.442 12.696ZM384.482 19.8C384.674 20.712 385.114 21.416 385.802 21.912C386.49 22.392 387.33 22.632 388.322 22.632C389.698 22.632 390.73 22.136 391.418 21.144L393.554 22.392C392.37 24.136 390.618 25.008 388.298 25.008C386.346 25.008 384.77 24.416 383.57 23.232C382.37 22.032 381.77 20.52 381.77 18.696C381.77 16.904 382.362 15.408 383.546 14.208C384.73 12.992 386.25 12.384 388.106 12.384C389.866 12.384 391.306 13 392.426 14.232C393.562 15.464 394.13 16.96 394.13 18.72C394.13 18.992 394.098 19.352 394.034 19.8L384.482 19.8ZM384.458 17.688L391.514 17.688C391.338 16.712 390.93 15.976 390.29 15.48C389.666 14.984 388.93 14.736 388.082 14.736C387.122 14.736 386.322 15 385.682 15.528C385.042 16.056 384.634 16.776 384.458 17.688ZM408.074 25.008C406.266 25.008 404.754 24.4 403.538 23.184C402.338 21.968 401.738 20.472 401.738 18.696C401.738 16.904 402.338 15.408 403.538 14.208C404.754 12.992 406.266 12.384 408.074 12.384C409.242 12.384 410.306 12.664 411.266 13.224C412.226 13.784 412.946 14.536 413.426 15.48L411.194 16.776C410.922 16.2 410.506 15.752 409.946 15.432C409.402 15.096 408.77 14.928 408.05 14.928C406.994 14.928 406.106 15.288 405.386 16.008C404.682 16.728 404.33 17.624 404.33 18.696C404.33 19.768 404.682 20.664 405.386 21.384C406.106 22.104 406.994 22.464 408.05 22.464C408.754 22.464 409.386 22.296 409.946 21.96C410.522 21.624 410.954 21.176 411.242 20.616L413.474 21.888C412.962 22.848 412.226 23.608 411.266 24.168C410.306 24.728 409.242 25.008 408.074 25.008ZM422.48 12.696L425.072 12.696L425.072 24.696L422.48 24.696L422.48 20.64C421.52 20.992 420.512 21.168 419.456 21.168C417.968 21.168 416.792 20.8 415.928 20.064C415.064 19.328 414.632 18.248 414.632 16.824L414.632 12.696L417.224 12.696L417.224 16.584C417.224 18.024 418.08 18.744 419.792 18.744C420.8 18.744 421.696 18.56 422.48 18.192L422.48 12.696ZM430.138 19.8C430.33 20.712 430.77 21.416 431.458 21.912C432.146 22.392 432.986 22.632 433.978 22.632C435.354 22.632 436.386 22.136 437.074 21.144L439.21 22.392C438.026 24.136 436.274 25.008 433.954 25.008C432.002 25.008 430.426 24.416 429.226 23.232C428.026 22.032 427.426 20.52 427.426 18.696C427.426 16.904 428.018 15.408 429.202 14.208C430.386 12.992 431.906 12.384 433.762 12.384C435.522 12.384 436.962 13 438.082 14.232C439.218 15.464 439.786 16.96 439.786 18.72C439.786 18.992 439.754 19.352 439.69 19.8L430.138 19.8ZM430.114 17.688L437.17 17.688C436.994 16.712 436.586 15.976 435.946 15.48C435.322 14.984 434.586 14.736 433.738 14.736C432.778 14.736 431.978 15 431.338 15.528C430.698 16.056 430.29 16.776 430.114 17.688ZM450.766 12.696L450.766 15.192L446.854 15.192L446.854 24.696L444.262 24.696L444.262 15.192L440.326 15.192L440.326 12.696L450.766 12.696ZM461.555 12.696L464.147 12.696L464.147 24.696L461.555 24.696L461.555 22.968C460.579 24.328 459.179 25.008 457.355 25.008C455.707 25.008 454.299 24.4 453.131 23.184C451.963 21.952 451.379 20.456 451.379 18.696C451.379 16.92 451.963 15.424 453.131 14.208C454.299 12.992 455.707 12.384 457.355 12.384C459.179 12.384 460.579 13.056 461.555 14.4L461.555 12.696ZM455.051 21.456C455.771 22.176 456.675 22.536 457.763 22.536C458.851 22.536 459.755 22.176 460.475 21.456C461.195 20.72 461.555 19.8 461.555 18.696C461.555 17.592 461.195 16.68 460.475 15.96C459.755 15.224 458.851 14.856 457.763 14.856C456.675 14.856 455.771 15.224 455.051 15.96C454.331 16.68 453.971 17.592 453.971 18.696C453.971 19.8 454.331 20.72 455.051 21.456Z" fill="#000000" fill-opacity="1.000000" fill-rule="evenodd"/>
	<path id="Отслеживание по графику" d="M543.72 21.488C542.04 23.168 539.984 24.008 537.552 24.008C535.12 24.008 533.056 23.168 531.36 21.488C529.68 19.792 528.84 17.728 528.84 15.296C528.84 12.864 529.68 10.808 531.36 9.128C533.056 7.432 535.12 6.584 537.552 6.584C539.984 6.584 542.04 7.432 543.72 9.128C545.416 10.808 546.264 12.864 546.264 15.296C546.264 17.728 545.416 19.792 543.72 21.488ZM533.304 19.616C534.456 20.752 535.872 21.32 537.552 21.32C539.232 21.32 540.64 20.752 541.776 19.616C542.928 18.464 543.504 17.024 543.504 15.296C543.504 13.568 542.928 12.136 541.776 11C540.64 9.848 539.232 9.272 537.552 9.272C535.872 9.272 534.456 9.848 533.304 11C532.168 12.136 531.6 13.568 531.6 15.296C531.6 17.024 532.168 18.464 533.304 19.616ZM557.782 11.696L557.782 14.192L553.87 14.192L553.87 23.696L551.278 23.696L551.278 14.192L547.342 14.192L547.342 11.696L557.782 11.696ZM564.731 24.008C562.923 24.008 561.411 23.4 560.195 22.184C558.995 20.968 558.395 19.472 558.395 17.696C558.395 15.904 558.995 14.408 560.195 13.208C561.411 11.992 562.923 11.384 564.731 11.384C565.899 11.384 566.963 11.664 567.923 12.224C568.883 12.784 569.603 13.536 570.083 14.48L567.851 15.776C567.579 15.2 567.163 14.752 566.603 14.432C566.059 14.096 565.427 13.928 564.707 13.928C563.651 13.928 562.763 14.288 562.043 15.008C561.339 15.728 560.987 16.624 560.987 17.696C560.987 18.768 561.339 19.664 562.043 20.384C562.763 21.104 563.651 21.464 564.707 21.464C565.411 21.464 566.043 21.296 566.603 20.96C567.179 20.624 567.611 20.176 567.899 19.616L570.131 20.888C569.619 21.848 568.883 22.608 567.923 23.168C566.963 23.728 565.899 24.008 564.731 24.008ZM581.968 11.696L581.968 23.696L579.376 23.696L579.376 14.192L575.368 14.192L575.368 18.656C575.368 20.56 574.952 21.912 574.12 22.712C573.288 23.512 572.104 23.84 570.568 23.696L570.568 21.272C571.304 21.4 571.856 21.248 572.224 20.816C572.592 20.384 572.776 19.624 572.776 18.536L572.776 11.696L581.968 11.696ZM587.029 18.8C587.221 19.712 587.661 20.416 588.349 20.912C589.037 21.392 589.877 21.632 590.869 21.632C592.245 21.632 593.277 21.136 593.965 20.144L596.101 21.392C594.917 23.136 593.165 24.008 590.845 24.008C588.893 24.008 587.317 23.416 586.117 22.232C584.917 21.032 584.317 19.52 584.317 17.696C584.317 15.904 584.909 14.408 586.093 13.208C587.277 11.992 588.797 11.384 590.653 11.384C592.413 11.384 593.853 12 594.973 13.232C596.109 14.464 596.677 15.96 596.677 17.72C596.677 17.992 596.645 18.352 596.581 18.8L587.029 18.8ZM587.005 16.688L594.061 16.688C593.885 15.712 593.477 14.976 592.837 14.48C592.213 13.984 591.477 13.736 590.629 13.736C589.669 13.736 588.869 14 588.229 14.528C587.589 15.056 587.181 15.776 587.005 16.688ZM613.687 23.696L610.735 23.696L606.655 18.152L606.655 23.696L604.111 23.696L604.111 18.2L600.031 23.696L597.079 23.696L601.759 17.576L597.319 11.696L600.271 11.696L604.111 16.952L604.111 11.696L606.655 11.696L606.655 16.976L610.495 11.696L613.447 11.696L609.007 17.576L613.687 23.696ZM624.239 11.696L626.231 11.696L626.231 23.696L623.687 23.696L623.687 16.064L617.543 23.696L615.551 23.696L615.551 11.696L618.095 11.696L618.095 19.304L624.239 11.696ZM637.543 17.528C638.727 18.072 639.319 18.992 639.319 20.288C639.319 21.296 638.975 22.12 638.287 22.76C637.615 23.384 636.647 23.696 635.383 23.696L629.239 23.696L629.239 11.696L634.903 11.696C636.135 11.696 637.087 12.008 637.759 12.632C638.447 13.24 638.791 14.032 638.791 15.008C638.791 16.144 638.375 16.984 637.543 17.528ZM634.711 13.904L631.711 13.904L631.711 16.568L634.711 16.568C635.767 16.568 636.295 16.12 636.295 15.224C636.295 14.344 635.767 13.904 634.711 13.904ZM635.143 21.44C636.231 21.44 636.775 20.968 636.775 20.024C636.775 19.608 636.631 19.288 636.343 19.064C636.055 18.824 635.655 18.704 635.143 18.704L631.711 18.704L631.711 21.44L635.143 21.44ZM650.93 11.696L653.522 11.696L653.522 23.696L650.93 23.696L650.93 21.968C649.954 23.328 648.554 24.008 646.73 24.008C645.082 24.008 643.674 23.4 642.506 22.184C641.338 20.952 640.754 19.456 640.754 17.696C640.754 15.92 641.338 14.424 642.506 13.208C643.674 11.992 645.082 11.384 646.73 11.384C648.554 11.384 649.954 12.056 650.93 13.4L650.93 11.696ZM644.426 20.456C645.146 21.176 646.05 21.536 647.138 21.536C648.226 21.536 649.13 21.176 649.85 20.456C650.57 19.72 650.93 18.8 650.93 17.696C650.93 16.592 650.57 15.68 649.85 14.96C649.13 14.224 648.226 13.856 647.138 13.856C646.05 13.856 645.146 14.224 644.426 14.96C643.706 15.68 643.346 16.592 643.346 17.696C643.346 18.8 643.706 19.72 644.426 20.456ZM664.631 11.696L667.223 11.696L667.223 23.696L664.631 23.696L664.631 18.92L659.135 18.92L659.135 23.696L656.543 23.696L656.543 11.696L659.135 11.696L659.135 16.472L664.631 16.472L664.631 11.696ZM678.919 11.696L680.911 11.696L680.911 23.696L678.367 23.696L678.367 16.064L672.223 23.696L670.231 23.696L670.231 11.696L672.775 11.696L672.775 19.304L678.919 11.696ZM685.958 18.8C686.15 19.712 686.59 20.416 687.278 20.912C687.966 21.392 688.806 21.632 689.798 21.632C691.174 21.632 692.206 21.136 692.894 20.144L695.03 21.392C693.846 23.136 692.094 24.008 689.774 24.008C687.822 24.008 686.246 23.416 685.046 22.232C683.846 21.032 683.246 19.52 683.246 17.696C683.246 15.904 683.838 14.408 685.022 13.208C686.206 11.992 687.726 11.384 689.582 11.384C691.342 11.384 692.782 12 693.902 13.232C695.038 14.464 695.606 15.96 695.606 17.72C695.606 17.992 695.574 18.352 695.51 18.8L685.958 18.8ZM685.934 16.688L692.99 16.688C692.814 15.712 692.406 14.976 691.766 14.48C691.142 13.984 690.406 13.736 689.558 13.736C688.598 13.736 687.798 14 687.158 14.528C686.518 15.056 686.11 15.776 685.934 16.688ZM714.567 11.696L714.567 23.696L711.975 23.696L711.975 14.144L706.479 14.144L706.479 23.696L703.887 23.696L703.887 11.696L714.567 11.696ZM723.239 24.008C721.479 24.008 719.982 23.4 718.75 22.184C717.518 20.968 716.902 19.472 716.902 17.696C716.902 15.92 717.518 14.424 718.75 13.208C719.982 11.992 721.479 11.384 723.239 11.384C725.015 11.384 726.51 11.992 727.727 13.208C728.958 14.424 729.574 15.92 729.574 17.696C729.574 19.472 728.958 20.968 727.727 22.184C726.51 23.4 725.015 24.008 723.239 24.008ZM720.574 20.408C721.294 21.128 722.182 21.488 723.239 21.488C724.294 21.488 725.182 21.128 725.902 20.408C726.622 19.688 726.982 18.784 726.982 17.696C726.982 16.608 726.622 15.704 725.902 14.984C725.182 14.264 724.294 13.904 723.239 13.904C722.182 13.904 721.294 14.264 720.574 14.984C719.854 15.704 719.495 16.608 719.495 17.696C719.495 18.784 719.854 19.688 720.574 20.408ZM745.958 11.696L745.958 14.192L740.51 14.192L740.51 23.696L737.918 23.696L737.918 11.696L745.958 11.696ZM754.507 11.384C756.155 11.384 757.563 12 758.731 13.232C759.899 14.448 760.483 15.936 760.483 17.696C760.483 19.472 759.899 20.968 758.731 22.184C757.563 23.4 756.155 24.008 754.507 24.008C752.683 24.008 751.283 23.336 750.307 21.992L750.307 28.496L747.715 28.496L747.715 11.696L750.307 11.696L750.307 13.424C751.283 12.064 752.683 11.384 754.507 11.384ZM751.387 20.456C752.107 21.176 753.011 21.536 754.099 21.536C755.187 21.536 756.091 21.176 756.811 20.456C757.531 19.72 757.891 18.8 757.891 17.696C757.891 16.592 757.531 15.68 756.811 14.96C756.091 14.224 755.187 13.856 754.099 13.856C753.011 13.856 752.107 14.224 751.387 14.96C750.667 15.68 750.307 16.592 750.307 17.696C750.307 18.8 750.667 19.72 751.387 20.456ZM772.336 11.696L774.928 11.696L774.928 23.696L772.336 23.696L772.336 21.968C771.36 23.328 769.96 24.008 768.136 24.008C766.488 24.008 765.08 23.4 763.912 22.184C762.744 20.952 762.16 19.456 762.16 17.696C762.16 15.92 762.744 14.424 763.912 13.208C765.08 11.992 766.488 11.384 768.136 11.384C769.96 11.384 771.36 12.056 772.336 13.4L772.336 11.696ZM765.832 20.456C766.552 21.176 767.456 21.536 768.544 21.536C769.632 21.536 770.536 21.176 771.256 20.456C771.976 19.72 772.336 18.8 772.336 17.696C772.336 16.592 771.976 15.68 771.256 14.96C770.536 14.224 769.632 13.856 768.544 13.856C767.456 13.856 766.552 14.224 765.832 14.96C765.112 15.68 764.752 16.592 764.752 17.696C764.752 18.8 765.112 19.72 765.832 20.456ZM790.286 13.544C791.374 14.68 791.917 16.064 791.917 17.696C791.917 19.328 791.374 20.712 790.286 21.848C789.198 22.984 787.725 23.672 785.87 23.912L785.87 28.496L783.326 28.496L783.326 23.912C781.469 23.672 779.997 22.984 778.909 21.848C777.822 20.712 777.277 19.328 777.277 17.696C777.277 16.064 777.822 14.68 778.909 13.544C779.997 12.408 781.469 11.72 783.326 11.48L783.326 6.896L785.87 6.896L785.87 11.48C787.725 11.72 789.198 12.408 790.286 13.544ZM785.87 21.44C786.974 21.232 787.829 20.8 788.438 20.144C789.046 19.472 789.349 18.656 789.349 17.696C789.349 16.736 789.046 15.928 788.438 15.272C787.829 14.6 786.974 14.16 785.87 13.952L785.87 21.44ZM780.758 15.272C780.15 15.944 779.846 16.752 779.846 17.696C779.846 18.64 780.15 19.448 780.758 20.12C781.365 20.792 782.221 21.232 783.326 21.44L783.326 13.952C782.221 14.16 781.365 14.6 780.758 15.272ZM802.95 11.696L804.942 11.696L804.942 23.696L802.398 23.696L802.398 16.064L796.254 23.696L794.262 23.696L794.262 11.696L796.806 11.696L796.806 19.304L802.95 11.696ZM818.557 23.696L815.461 23.696L810.542 18.152L810.542 23.696L807.949 23.696L807.949 11.696L810.542 11.696L810.542 17L815.198 11.696L818.365 11.696L813.086 17.576L818.557 23.696ZM828.155 11.696L830.915 11.696L826.307 24.08C825.747 25.6 824.963 26.736 823.955 27.488C822.947 28.24 821.779 28.576 820.451 28.496L820.451 26.072C821.267 26.12 821.923 25.952 822.419 25.568C822.931 25.2 823.339 24.6 823.643 23.768L823.715 23.6L818.675 11.696L821.435 11.696L825.083 20.432L828.155 11.696Z" fill="#000000" fill-opacity="1.000000" fill-rule="evenodd"/>
	<path id="Продажа монет" d="M898.04 7.896L898.04 24.696L895.28 24.696L895.28 10.536L888.44 10.536L888.44 24.696L885.68 24.696L885.68 7.896L898.04 7.896ZM908.031 12.384C909.679 12.384 911.087 13 912.255 14.232C913.423 15.448 914.007 16.936 914.007 18.696C914.007 20.472 913.423 21.968 912.255 23.184C911.087 24.4 909.679 25.008 908.031 25.008C906.207 25.008 904.807 24.336 903.831 22.992L903.831 29.496L901.239 29.496L901.239 12.696L903.831 12.696L903.831 14.424C904.807 13.064 906.207 12.384 908.031 12.384ZM904.911 21.456C905.631 22.176 906.535 22.536 907.623 22.536C908.711 22.536 909.615 22.176 910.335 21.456C911.055 20.72 911.415 19.8 911.415 18.696C911.415 17.592 911.055 16.68 910.335 15.96C909.615 15.224 908.711 14.856 907.623 14.856C906.535 14.856 905.631 15.224 904.911 15.96C904.191 16.68 903.831 17.592 903.831 18.696C903.831 19.8 904.191 20.72 904.911 21.456ZM922.02 25.008C920.26 25.008 918.764 24.4 917.532 23.184C916.3 21.968 915.684 20.472 915.684 18.696C915.684 16.92 916.3 15.424 917.532 14.208C918.764 12.992 920.26 12.384 922.02 12.384C923.796 12.384 925.292 12.992 926.508 14.208C927.74 15.424 928.356 16.92 928.356 18.696C928.356 20.472 927.74 21.968 926.508 23.184C925.292 24.4 923.796 25.008 922.02 25.008ZM919.356 21.408C920.076 22.128 920.964 22.488 922.02 22.488C923.076 22.488 923.964 22.128 924.684 21.408C925.404 20.688 925.764 19.784 925.764 18.696C925.764 17.608 925.404 16.704 924.684 15.984C923.964 15.264 923.076 14.904 922.02 14.904C920.964 14.904 920.076 15.264 919.356 15.984C918.636 16.704 918.276 17.608 918.276 18.696C918.276 19.784 918.636 20.688 919.356 21.408ZM940.791 22.248L942.399 22.248L942.399 27.912L939.855 27.912L939.855 24.696L931.623 24.696L931.623 27.912L929.079 27.912L929.079 22.248L930.543 22.248C931.279 21.208 931.647 19.76 931.647 17.904L931.647 12.696L940.791 12.696L940.791 22.248ZM933.399 22.248L938.247 22.248L938.247 15.072L934.191 15.072L934.191 17.904C934.191 19.616 933.927 21.064 933.399 22.248ZM953.539 12.696L956.131 12.696L956.131 24.696L953.539 24.696L953.539 22.968C952.563 24.328 951.163 25.008 949.339 25.008C947.691 25.008 946.283 24.4 945.115 23.184C943.947 21.952 943.363 20.456 943.363 18.696C943.363 16.92 943.947 15.424 945.115 14.208C946.283 12.992 947.691 12.384 949.339 12.384C951.163 12.384 952.563 13.056 953.539 14.4L953.539 12.696ZM947.035 21.456C947.755 22.176 948.659 22.536 949.747 22.536C950.835 22.536 951.739 22.176 952.459 21.456C953.179 20.72 953.539 19.8 953.539 18.696C953.539 17.592 953.179 16.68 952.459 15.96C951.739 15.224 950.835 14.856 949.747 14.856C948.659 14.856 947.755 15.224 947.035 15.96C946.315 16.68 945.955 17.592 945.955 18.696C945.955 19.8 946.315 20.72 947.035 21.456ZM974.609 24.696L971.657 24.696L967.577 19.152L967.577 24.696L965.033 24.696L965.033 19.2L960.953 24.696L958.001 24.696L962.681 18.576L958.241 12.696L961.193 12.696L965.033 17.952L965.033 12.696L967.577 12.696L967.577 17.976L971.417 12.696L974.369 12.696L969.929 18.576L974.609 24.696ZM985.016 12.696L987.608 12.696L987.608 24.696L985.016 24.696L985.016 22.968C984.04 24.328 982.64 25.008 980.816 25.008C979.168 25.008 977.76 24.4 976.592 23.184C975.424 21.952 974.84 20.456 974.84 18.696C974.84 16.92 975.424 15.424 976.592 14.208C977.76 12.992 979.168 12.384 980.816 12.384C982.64 12.384 984.04 13.056 985.016 14.4L985.016 12.696ZM978.512 21.456C979.232 22.176 980.136 22.536 981.224 22.536C982.312 22.536 983.216 22.176 983.936 21.456C984.656 20.72 985.016 19.8 985.016 18.696C985.016 17.592 984.656 16.68 983.936 15.96C983.216 15.224 982.312 14.856 981.224 14.856C980.136 14.856 979.232 15.224 978.512 15.96C977.792 16.68 977.432 17.592 977.432 18.696C977.432 19.8 977.792 20.72 978.512 21.456ZM1008.87 12.696L1008.87 24.696L1006.35 24.696L1006.35 16.8L1002.89 22.296L1002.58 22.296L999.149 16.824L999.149 24.696L996.629 24.696L996.629 12.696L999.269 12.696L1002.75 18.24L1006.23 12.696L1008.87 12.696ZM1017.53 25.008C1015.77 25.008 1014.27 24.4 1013.04 23.184C1011.81 21.968 1011.19 20.472 1011.19 18.696C1011.19 16.92 1011.81 15.424 1013.04 14.208C1014.27 12.992 1015.77 12.384 1017.53 12.384C1019.3 12.384 1020.8 12.992 1022.02 14.208C1023.25 15.424 1023.86 16.92 1023.86 18.696C1023.86 20.472 1023.25 21.968 1022.02 23.184C1020.8 24.4 1019.3 25.008 1017.53 25.008ZM1014.86 21.408C1015.58 22.128 1016.47 22.488 1017.53 22.488C1018.58 22.488 1019.47 22.128 1020.19 21.408C1020.91 20.688 1021.27 19.784 1021.27 18.696C1021.27 17.608 1020.91 16.704 1020.19 15.984C1019.47 15.264 1018.58 14.904 1017.53 14.904C1016.47 14.904 1015.58 15.264 1014.86 15.984C1014.14 16.704 1013.78 17.608 1013.78 18.696C1013.78 19.784 1014.14 20.688 1014.86 21.408ZM1034.3 12.696L1036.89 12.696L1036.89 24.696L1034.3 24.696L1034.3 19.92L1028.8 19.92L1028.8 24.696L1026.21 24.696L1026.21 12.696L1028.8 12.696L1028.8 17.472L1034.3 17.472L1034.3 12.696ZM1041.93 19.8C1042.13 20.712 1042.57 21.416 1043.25 21.912C1043.94 22.392 1044.78 22.632 1045.77 22.632C1047.15 22.632 1048.18 22.136 1048.87 21.144L1051.01 22.392C1049.82 24.136 1048.07 25.008 1045.75 25.008C1043.8 25.008 1042.22 24.416 1041.02 23.232C1039.82 22.032 1039.22 20.52 1039.22 18.696C1039.22 16.904 1039.81 15.408 1041 14.208C1042.18 12.992 1043.7 12.384 1045.56 12.384C1047.32 12.384 1048.76 13 1049.88 14.232C1051.01 15.464 1051.58 16.96 1051.58 18.72C1051.58 18.992 1051.55 19.352 1051.49 19.8L1041.93 19.8ZM1041.91 17.688L1048.97 17.688C1048.79 16.712 1048.38 15.976 1047.74 15.48C1047.12 14.984 1046.38 14.736 1045.53 14.736C1044.57 14.736 1043.77 15 1043.13 15.528C1042.49 16.056 1042.09 16.776 1041.91 17.688ZM1062.56 12.696L1062.56 15.192L1058.65 15.192L1058.65 24.696L1056.06 24.696L1056.06 15.192L1052.12 15.192L1052.12 12.696L1062.56 12.696Z" fill="#000000" fill-opacity="1.000000" fill-rule="evenodd"/>
	<path id="Вывод прибыли" d="M1136.57 14.984C1137.3 15.368 1137.88 15.896 1138.3 16.568C1138.71 17.24 1138.92 18.016 1138.92 18.896C1138.92 20.272 1138.43 21.416 1137.46 22.328C1136.48 23.24 1135.29 23.696 1133.88 23.696L1126.68 23.696L1126.68 6.896L1133.35 6.896C1134.73 6.896 1135.89 7.344 1136.83 8.24C1137.79 9.12 1138.27 10.224 1138.27 11.552C1138.27 13.008 1137.7 14.152 1136.57 14.984ZM1133.35 9.488L1129.44 9.488L1129.44 13.904L1133.35 13.904C1133.96 13.904 1134.47 13.696 1134.89 13.28C1135.3 12.848 1135.51 12.32 1135.51 11.696C1135.51 11.072 1135.3 10.552 1134.89 10.136C1134.47 9.704 1133.96 9.488 1133.35 9.488ZM1133.88 21.104C1134.52 21.104 1135.06 20.88 1135.49 20.432C1135.94 19.968 1136.16 19.408 1136.16 18.752C1136.16 18.096 1135.94 17.544 1135.49 17.096C1135.06 16.632 1134.52 16.4 1133.88 16.4L1129.44 16.4L1129.44 21.104L1133.88 21.104ZM1146.39 15.776C1147.67 15.776 1148.72 16.144 1149.54 16.88C1150.35 17.6 1150.76 18.552 1150.76 19.736C1150.76 20.904 1150.35 21.856 1149.54 22.592C1148.72 23.328 1147.67 23.696 1146.39 23.696L1141.16 23.696L1141.16 11.696L1143.75 11.696L1143.75 15.776L1146.39 15.776ZM1152.2 11.696L1154.79 11.696L1154.79 23.696L1152.2 23.696L1152.2 11.696ZM1146.42 21.368C1146.93 21.368 1147.35 21.216 1147.69 20.912C1148.04 20.608 1148.22 20.216 1148.22 19.736C1148.22 19.24 1148.04 18.848 1147.69 18.56C1147.35 18.256 1146.93 18.104 1146.42 18.104L1143.75 18.104L1143.75 21.368L1146.42 21.368ZM1166.11 17.528C1167.29 18.072 1167.88 18.992 1167.88 20.288C1167.88 21.296 1167.54 22.12 1166.85 22.76C1166.18 23.384 1165.21 23.696 1163.95 23.696L1157.8 23.696L1157.8 11.696L1163.47 11.696C1164.7 11.696 1165.65 12.008 1166.32 12.632C1167.01 13.24 1167.35 14.032 1167.35 15.008C1167.35 16.144 1166.94 16.984 1166.11 17.528ZM1163.27 13.904L1160.27 13.904L1160.27 16.568L1163.27 16.568C1164.33 16.568 1164.86 16.12 1164.86 15.224C1164.86 14.344 1164.33 13.904 1163.27 13.904ZM1163.71 21.44C1164.79 21.44 1165.34 20.968 1165.34 20.024C1165.34 19.608 1165.19 19.288 1164.91 19.064C1164.62 18.824 1164.22 18.704 1163.71 18.704L1160.27 18.704L1160.27 21.44L1163.71 21.44ZM1175.65 24.008C1173.89 24.008 1172.4 23.4 1171.16 22.184C1169.93 20.968 1169.32 19.472 1169.32 17.696C1169.32 15.92 1169.93 14.424 1171.16 13.208C1172.4 11.992 1173.89 11.384 1175.65 11.384C1177.43 11.384 1178.92 11.992 1180.14 13.208C1181.37 14.424 1181.99 15.92 1181.99 17.696C1181.99 19.472 1181.37 20.968 1180.14 22.184C1178.92 23.4 1177.43 24.008 1175.65 24.008ZM1172.99 20.408C1173.71 21.128 1174.6 21.488 1175.65 21.488C1176.71 21.488 1177.6 21.128 1178.32 20.408C1179.04 19.688 1179.4 18.784 1179.4 17.696C1179.4 16.608 1179.04 15.704 1178.32 14.984C1177.6 14.264 1176.71 13.904 1175.65 13.904C1174.6 13.904 1173.71 14.264 1172.99 14.984C1172.27 15.704 1171.91 16.608 1171.91 17.696C1171.91 18.784 1172.27 19.688 1172.99 20.408ZM1194.42 21.248L1196.03 21.248L1196.03 26.912L1193.49 26.912L1193.49 23.696L1185.26 23.696L1185.26 26.912L1182.71 26.912L1182.71 21.248L1184.18 21.248C1184.91 20.208 1185.28 18.76 1185.28 16.904L1185.28 11.696L1194.42 11.696L1194.42 21.248ZM1187.03 21.248L1191.88 21.248L1191.88 14.072L1187.82 14.072L1187.82 16.904C1187.82 18.616 1187.56 20.064 1187.03 21.248ZM1214.82 11.696L1214.82 23.696L1212.22 23.696L1212.22 14.144L1206.73 14.144L1206.73 23.696L1204.14 23.696L1204.14 11.696L1214.82 11.696ZM1224.62 11.384C1226.26 11.384 1227.67 12 1228.84 13.232C1230.01 14.448 1230.59 15.936 1230.59 17.696C1230.59 19.472 1230.01 20.968 1228.84 22.184C1227.67 23.4 1226.26 24.008 1224.62 24.008C1222.79 24.008 1221.39 23.336 1220.42 21.992L1220.42 28.496L1217.82 28.496L1217.82 11.696L1220.42 11.696L1220.42 13.424C1221.39 12.064 1222.79 11.384 1224.62 11.384ZM1221.5 20.456C1222.22 21.176 1223.12 21.536 1224.21 21.536C1225.3 21.536 1226.2 21.176 1226.92 20.456C1227.64 19.72 1228 18.8 1228 17.696C1228 16.592 1227.64 15.68 1226.92 14.96C1226.2 14.224 1225.3 13.856 1224.21 13.856C1223.12 13.856 1222.22 14.224 1221.5 14.96C1220.78 15.68 1220.42 16.592 1220.42 17.696C1220.42 18.8 1220.78 19.72 1221.5 20.456ZM1241.63 11.696L1243.62 11.696L1243.62 23.696L1241.08 23.696L1241.08 16.064L1234.93 23.696L1232.94 23.696L1232.94 11.696L1235.49 11.696L1235.49 19.304L1241.63 11.696ZM1252.2 24.008C1250.36 24.008 1248.85 23.416 1247.69 22.232C1246.53 21.032 1245.96 19.504 1245.96 17.648C1245.96 15.616 1246.26 14.048 1246.87 12.944C1247.48 11.824 1248.71 10.808 1250.57 9.896C1250.87 9.752 1251.32 9.544 1251.91 9.272C1252.52 9 1252.93 8.808 1253.16 8.696C1253.38 8.568 1253.66 8.392 1254 8.168C1254.33 7.928 1254.58 7.68 1254.74 7.424C1254.9 7.152 1255.03 6.832 1255.13 6.464L1257.24 7.688C1257.17 8.04 1257.07 8.368 1256.93 8.672C1256.78 8.96 1256.57 9.232 1256.3 9.488C1256.03 9.744 1255.79 9.952 1255.58 10.112C1255.39 10.272 1255.06 10.464 1254.6 10.688C1254.13 10.912 1253.79 11.072 1253.57 11.168C1253.36 11.264 1252.96 11.432 1252.37 11.672C1251.31 12.088 1250.53 12.52 1250.04 12.968C1249.56 13.4 1249.22 13.944 1249.03 14.6C1249.99 13.512 1251.29 12.968 1252.94 12.968C1254.35 12.968 1255.57 13.472 1256.61 14.48C1257.67 15.488 1258.2 16.792 1258.2 18.392C1258.2 20.024 1257.64 21.368 1256.52 22.424C1255.41 23.48 1253.97 24.008 1252.2 24.008ZM1252.17 21.584C1253.18 21.584 1254.01 21.288 1254.65 20.696C1255.29 20.088 1255.61 19.32 1255.61 18.392C1255.61 17.448 1255.29 16.672 1254.65 16.064C1254.02 15.456 1253.21 15.152 1252.2 15.152C1251.3 15.152 1250.49 15.44 1249.77 16.016C1249.05 16.576 1248.69 17.328 1248.69 18.272C1248.69 19.232 1249.03 20.024 1249.7 20.648C1250.37 21.272 1251.2 21.584 1252.17 21.584ZM1265.48 15.776C1266.76 15.776 1267.81 16.144 1268.62 16.88C1269.44 17.6 1269.85 18.552 1269.85 19.736C1269.85 20.904 1269.44 21.856 1268.62 22.592C1267.81 23.328 1266.76 23.696 1265.48 23.696L1260.25 23.696L1260.25 11.696L1262.84 11.696L1262.84 15.776L1265.48 15.776ZM1271.29 11.696L1273.88 11.696L1273.88 23.696L1271.29 23.696L1271.29 11.696ZM1265.5 21.368C1266.01 21.368 1266.44 21.216 1266.77 20.912C1267.13 20.608 1267.3 20.216 1267.3 19.736C1267.3 19.24 1267.13 18.848 1266.77 18.56C1266.44 18.256 1266.01 18.104 1265.5 18.104L1262.84 18.104L1262.84 21.368L1265.5 21.368ZM1287.02 11.696L1287.02 23.696L1284.42 23.696L1284.42 14.192L1280.42 14.192L1280.42 18.656C1280.42 20.56 1280 21.912 1279.17 22.712C1278.33 23.512 1277.15 23.84 1275.61 23.696L1275.61 21.272C1276.35 21.4 1276.9 21.248 1277.27 20.816C1277.64 20.384 1277.82 19.624 1277.82 18.536L1277.82 11.696L1287.02 11.696ZM1298.72 11.696L1300.72 11.696L1300.72 23.696L1298.17 23.696L1298.17 16.064L1292.03 23.696L1290.04 23.696L1290.04 11.696L1292.58 11.696L1292.58 19.304L1298.72 11.696Z" fill="#000000" fill-opacity="1.000000" fill-rule="evenodd"/>
	<path id="Vector" d="M669.996 153.863L675.967 153.863L675.967 162.42L669.996 162.42L669.996 153.863Z" fill="#FFFFFF" fill-opacity="1.000000" fill-rule="evenodd"/>
	<rect id="Component 20" width="71.822304" height="71.822105" transform="translate(652.000000 98.000000)" fill="#FFFFFF" fill-opacity="0"/>
	<path id="Vector" d="M706.773 115.876L714.94 118.475L709.761 98L687.454 110.349L695.619 113.275C681.481 141.223 652 153.141 652 153.141C695.82 141.332 706.773 115.876 706.773 115.876Z" fill="#FFFFFF" fill-opacity="1.000000" fill-rule="nonzero"/>
	<path id="Vector" d="M668.054 151.19L674.029 151.19L674.029 163.43L668.054 163.43L668.054 151.19Z" fill="#FFFFFF" fill-opacity="1.000000" fill-rule="evenodd"/>
	<path id="Vector" d="M679.21 145.988L685.185 145.988L685.185 163.429L679.21 163.429L679.21 145.988Z" fill="#FFFFFF" fill-opacity="1.000000" fill-rule="evenodd"/>
	<path id="Vector" d="M690.366 137.975L696.341 137.975L696.341 163.429L690.366 163.429L690.366 137.975Z" fill="#FFFFFF" fill-opacity="1.000000" fill-rule="evenodd"/>
	<path id="Vector" d="M701.52 133.369L707.495 133.369L707.495 163.429L701.52 163.429L701.52 133.369Z" fill="#FFFFFF" fill-opacity="1.000000" fill-rule="evenodd"/>
	<path id="Vector" d="M712.671 128.548L718.643 128.548L718.643 163.43L712.671 163.43L712.671 128.548Z" fill="#FFFFFF" fill-opacity="1.000000" fill-rule="evenodd"/>
	<path id="Vector" d="M653.09 165.271L723.822 165.271L723.822 169.822L653.09 169.822L653.09 165.271Z" fill="#FFFFFF" fill-opacity="1.000000" fill-rule="evenodd"/>
	<path id="Vector" d="M446.321 133.371C446.321 152.05 431.178 167.193 412.499 167.193C393.82 167.193 378.677 152.05 378.677 133.371C378.677 114.692 393.82 99.5493 412.499 99.5493C431.178 99.5493 446.321 114.692 446.321 133.371Z" fill="#FFFFFF" fill-opacity="1.000000" fill-rule="evenodd"/>
	<path id="Vector" d="M412.5 169C392.878 169 377 153.122 377 133.5C377 113.878 393.007 98 412.5 98C431.993 98 448 113.878 448 133.5C448 153.122 432.122 169 412.5 169ZM412.5 101.098C394.686 101.098 380.227 115.556 380.227 133.371C380.227 151.186 394.686 165.644 412.5 165.644C430.314 165.644 444.773 151.186 444.773 133.371C444.773 115.556 430.314 101.098 412.5 101.098Z" fill="#FFFFFF" fill-opacity="1.000000" fill-rule="nonzero"/>
	<g opacity="0.300000">
		<g opacity="0.300000">
			<path id="Vector" d="M412.5 107.166C398.042 107.166 386.294 118.913 386.294 133.371C386.294 147.829 398.042 159.706 412.5 159.706C426.958 159.706 438.706 147.958 438.706 133.5C438.706 119.042 427.087 107.166 412.5 107.166Z" fill="#F6F7F6" fill-opacity="1.000000" fill-rule="nonzero"/>
		</g>
	</g>
	<path id="Vector" d="M412.5 161.255C397.139 161.255 384.617 148.733 384.617 133.372C384.617 118.01 397.139 105.617 412.5 105.617C427.862 105.617 440.384 118.139 440.384 133.5C440.384 148.862 427.991 161.255 412.5 161.255ZM412.5 108.844C398.946 108.844 387.844 119.946 387.844 133.5C387.844 147.055 398.946 158.157 412.5 158.157C426.055 158.157 437.157 147.055 437.157 133.5C437.157 119.946 426.184 108.844 412.5 108.844Z" fill="#A790C6" fill-opacity="1.000000" fill-rule="nonzero"/>
	<path id="Vector" d="M417.922 133.629C417.018 133.113 416.114 132.597 414.953 132.339C414.049 132.08 413.146 131.822 412.113 131.564C411.209 131.306 410.435 131.048 409.66 130.79C409.015 130.531 408.498 130.144 407.981 129.757C407.594 129.369 407.207 128.982 406.949 128.337C406.82 127.949 406.562 127.175 406.562 126.013C406.562 125.368 406.691 124.722 406.949 124.077C407.207 123.431 407.465 122.915 407.981 122.528C408.369 122.011 409.014 121.624 409.789 121.366C410.563 121.108 411.467 120.849 412.5 120.849C413.533 120.849 414.436 120.979 415.082 121.366C415.727 121.624 416.373 122.14 416.76 122.528C417.147 123.044 417.534 123.689 417.792 124.335C418.051 125.109 418.825 125.497 419.729 125.239C420.503 124.98 420.891 124.206 420.633 123.302C420.245 122.27 419.729 121.237 419.083 120.462C418.309 119.559 417.405 118.913 416.373 118.397C415.727 118.138 414.824 117.88 414.049 117.751L414.049 116.719C414.049 115.944 413.403 115.169 412.5 115.169C411.725 115.169 410.951 115.815 410.951 116.719L410.951 117.751C410.047 117.88 409.272 118.01 408.627 118.397C407.465 118.913 406.562 119.429 405.916 120.204C405.142 120.979 404.625 121.882 404.238 122.786C403.851 123.689 403.722 124.722 403.722 125.755C403.722 127.175 403.98 128.466 404.367 129.369C404.754 130.402 405.4 131.177 406.174 131.822C406.949 132.468 407.724 132.984 408.756 133.371C409.66 133.759 410.563 134.017 411.596 134.275C412.5 134.533 413.403 134.791 414.307 135.049C415.082 135.308 415.856 135.695 416.501 136.082C417.147 136.469 417.664 136.986 418.051 137.631C418.438 138.277 418.696 139.18 418.696 140.213C418.696 140.988 418.567 141.762 418.309 142.408C418.051 143.053 417.792 143.698 417.276 144.215C416.889 144.731 416.244 145.118 415.598 145.377C414.953 145.635 414.049 145.764 413.016 145.764C412.113 145.764 411.338 145.635 410.692 145.377C409.918 145.118 409.402 144.731 408.756 144.215C408.24 143.698 407.724 143.053 407.336 142.149C406.949 141.375 406.174 140.988 405.4 141.375C404.625 141.762 404.238 142.537 404.625 143.311C405.142 144.602 405.916 145.635 406.82 146.409C407.724 147.184 408.756 147.829 409.789 148.217C410.176 148.346 410.692 148.475 411.209 148.604L411.209 149.766C411.209 150.54 411.854 151.315 412.758 151.315C413.533 151.315 414.307 150.669 414.307 149.766L414.307 148.733C415.211 148.604 416.114 148.475 416.889 148.088C418.051 147.571 418.955 146.926 419.729 146.151C420.503 145.377 421.02 144.344 421.407 143.311C421.794 142.279 421.923 141.246 421.923 140.213C421.923 138.535 421.536 137.115 420.891 136.082C419.729 135.178 418.955 134.275 417.922 133.629Z" fill="#A790C6" fill-opacity="1.000000" fill-rule="nonzero"/>
	<path id="Vector" d="M993.083 127.654L946.311 127.654L941.984 118.983C941.851 118.717 941.646 118.494 941.393 118.338C941.14 118.183 940.849 118.101 940.551 118.103L932.592 118.103C932.17 118.103 931.765 118.27 931.466 118.569C931.167 118.867 931 119.272 931 119.694C931 120.117 931.167 120.521 931.466 120.82C931.765 121.119 932.17 121.286 932.592 121.286L939.567 121.286L943.835 129.823L949.583 149.94L948.511 149.94C948.088 149.94 947.684 150.108 947.385 150.406C947.086 150.705 946.919 151.11 946.919 151.532L946.919 157.899C946.919 158.322 947.086 158.727 947.385 159.025C947.684 159.323 948.088 159.491 948.511 159.491L954.171 159.491C953.598 160.455 953.293 161.554 953.286 162.675C953.286 164.364 953.957 165.983 955.151 167.177C956.345 168.372 957.965 169.042 959.654 169.042C961.342 169.042 962.962 168.372 964.156 167.177C965.351 165.983 966.021 164.364 966.021 162.675C966.015 161.554 965.709 160.455 965.136 159.491L973.274 159.491C972.701 160.455 972.396 161.554 972.389 162.675C972.389 163.934 972.762 165.166 973.462 166.213C974.162 167.26 975.156 168.076 976.319 168.558C977.483 169.04 978.763 169.166 979.999 168.92C981.233 168.675 982.368 168.068 983.259 167.177C984.149 166.287 984.756 165.152 985.001 163.917C985.247 162.682 985.121 161.402 984.639 160.238C984.157 159.075 983.341 158.08 982.294 157.381C981.247 156.681 980.016 156.308 978.756 156.308L950.103 156.308L950.103 153.124L986.716 153.124C987.062 153.124 987.398 153.011 987.675 152.802C987.951 152.594 988.152 152.301 988.247 151.968L994.614 129.682C994.682 129.445 994.693 129.196 994.648 128.953C994.603 128.711 994.502 128.483 994.354 128.286C994.206 128.09 994.013 127.93 993.793 127.821C993.572 127.711 993.33 127.654 993.083 127.654ZM978.756 159.491C979.386 159.491 980.001 159.678 980.525 160.028C981.048 160.378 981.457 160.875 981.698 161.457C981.938 162.038 982.001 162.678 981.879 163.296C981.756 163.914 981.453 164.481 981.007 164.926C980.562 165.372 979.995 165.675 979.377 165.798C978.76 165.92 978.12 165.857 977.538 165.616C976.956 165.375 976.459 164.967 976.109 164.444C975.759 163.92 975.572 163.305 975.572 162.675C975.572 161.831 975.908 161.021 976.505 160.424C977.102 159.827 977.912 159.491 978.756 159.491ZM959.654 159.491C960.283 159.491 960.899 159.678 961.422 160.028C961.946 160.378 962.354 160.875 962.595 161.457C962.836 162.038 962.899 162.678 962.776 163.296C962.653 163.914 962.35 164.481 961.905 164.926C961.46 165.372 960.893 165.675 960.275 165.798C959.657 165.92 959.017 165.857 958.436 165.616C957.854 165.375 957.356 164.967 957.006 164.444C956.657 163.92 956.47 163.305 956.47 162.675C956.47 161.831 956.805 161.021 957.402 160.424C958 159.827 958.81 159.491 959.654 159.491ZM959.654 149.94L952.895 149.94L950.622 141.981L959.654 141.981L959.654 149.94ZM959.654 138.797L949.711 138.797L947.438 130.838L959.654 130.838L959.654 138.797ZM975.572 149.94L962.837 149.94L962.837 141.981L975.572 141.981L975.572 149.94ZM975.572 138.797L962.837 138.797L962.837 130.838L975.572 130.838L975.572 138.797ZM985.515 149.94L978.756 149.94L978.756 141.981L987.789 141.981L985.515 149.94ZM988.699 138.797L978.756 138.797L978.756 130.838L990.972 130.838L988.699 138.797Z" fill="#FFFFFF" fill-opacity="1.000000" fill-rule="nonzero"/>
	<path id="Vector" d="M983.142 124.333C983.342 124.423 983.559 124.469 983.779 124.47C984.087 124.47 984.389 124.381 984.647 124.213C984.906 124.044 985.11 123.805 985.235 123.523C986.215 121.315 986.72 118.926 986.716 116.51C986.716 111.866 984.871 107.413 981.587 104.129C978.303 100.845 973.849 99 969.205 99C964.561 99 960.107 100.845 956.823 104.129C953.539 107.413 951.694 111.866 951.694 116.51C951.688 118.926 952.19 121.315 953.168 123.523C953.346 123.899 953.663 124.19 954.053 124.335C954.442 124.48 954.873 124.467 955.253 124.299C955.633 124.13 955.932 123.82 956.086 123.434C956.24 123.048 956.238 122.617 956.079 122.233C955.282 120.431 954.873 118.481 954.878 116.51C954.878 112.711 956.388 109.067 959.074 106.38C961.761 103.693 965.405 102.184 969.205 102.184C973.005 102.184 976.649 103.693 979.335 106.38C982.022 109.067 983.532 112.711 983.532 116.51C983.538 118.481 983.128 120.431 982.332 122.233C982.161 122.619 982.15 123.057 982.302 123.451C982.454 123.845 982.756 124.162 983.142 124.333Z" fill="#FFFFFF" fill-opacity="1.000000" fill-rule="nonzero"/>
	<path id="Vector" d="M970.797 126.062L970.797 124.47L973.98 124.47C974.403 124.47 974.808 124.303 975.106 124.004C975.405 123.706 975.572 123.301 975.572 122.878L975.572 116.511C975.572 116.089 975.405 115.684 975.106 115.385C974.808 115.087 974.403 114.919 973.98 114.919L966.021 114.919L966.021 111.735L973.98 111.735C974.403 111.735 974.808 111.568 975.106 111.269C975.405 110.971 975.572 110.566 975.572 110.144C975.572 109.721 975.405 109.316 975.106 109.018C974.808 108.719 974.403 108.552 973.98 108.552L970.797 108.552L970.797 106.96C970.797 106.538 970.629 106.133 970.331 105.834C970.032 105.536 969.627 105.368 969.205 105.368C968.783 105.368 968.378 105.536 968.079 105.834C967.781 106.133 967.613 106.538 967.613 106.96L967.613 108.552L964.429 108.552C964.007 108.552 963.602 108.719 963.304 109.018C963.005 109.316 962.837 109.721 962.837 110.144L962.837 116.511C962.837 116.933 963.005 117.338 963.304 117.637C963.602 117.935 964.007 118.103 964.429 118.103L972.389 118.103L972.389 121.287L964.429 121.287C964.007 121.287 963.602 121.454 963.304 121.753C963.005 122.052 962.837 122.456 962.837 122.878C962.837 123.301 963.005 123.706 963.304 124.004C963.602 124.303 964.007 124.47 964.429 124.47L967.613 124.47L967.613 126.062C967.613 126.484 967.781 126.889 968.079 127.188C968.378 127.486 968.783 127.654 969.205 127.654C969.627 127.654 970.032 127.486 970.331 127.188C970.629 126.889 970.797 126.484 970.797 126.062Z" fill="#FFFFFF" fill-opacity="1.000000" fill-rule="nonzero"/>
	<path id="Vector" d="M1277.48 109.361L1266.2 109.361L1252.31 105.104C1251.47 104.847 1250.59 104.769 1249.72 104.874C1248.85 104.979 1248.01 105.265 1247.27 105.711L1238.9 110.763C1238.81 110.818 1238.73 110.888 1238.67 110.971C1238.61 111.054 1238.57 111.147 1238.54 111.245C1238.52 111.344 1238.52 111.446 1238.54 111.545C1238.56 111.644 1238.6 111.739 1238.65 111.823C1238.71 111.908 1238.79 111.982 1238.88 112.039C1238.96 112.097 1239.06 112.137 1239.17 112.159C1239.27 112.18 1239.38 112.182 1239.49 112.165C1239.59 112.147 1239.69 112.11 1239.78 112.055L1248.16 107.01C1248.69 106.688 1249.3 106.481 1249.93 106.406C1250.56 106.331 1251.2 106.389 1251.8 106.576L1265.83 110.861C1265.91 110.886 1265.99 110.899 1266.08 110.898L1276.66 110.898L1276.66 123.793L1270.58 123.793C1270.43 123.793 1270.28 123.832 1270.15 123.905C1270.03 123.979 1269.92 124.083 1269.85 124.208C1268.94 125.663 1267.54 126.796 1265.87 127.432L1265.87 123.982C1267.18 123.457 1268.58 122.544 1269.47 120.952C1269.52 120.863 1269.55 120.765 1269.56 120.664C1269.57 120.564 1269.56 120.462 1269.53 120.366C1269.5 120.269 1269.45 120.179 1269.38 120.102C1269.31 120.024 1269.23 119.959 1269.13 119.912C1269.04 119.865 1268.93 119.836 1268.83 119.826C1268.72 119.817 1268.61 119.828 1268.51 119.857C1268.4 119.887 1268.31 119.936 1268.23 120C1268.14 120.064 1268.08 120.144 1268.02 120.233C1266.47 123.023 1262.61 123.148 1262.59 123.148C1257.41 123.148 1255.92 119.755 1255.86 119.615C1255.8 119.469 1255.69 119.345 1255.56 119.257C1255.42 119.169 1255.26 119.122 1255.09 119.122L1247.41 119.122C1247.12 119.129 1246.83 119.081 1246.56 118.981C1246.29 118.881 1246.04 118.731 1245.83 118.541C1245.63 118.349 1245.46 118.121 1245.35 117.869C1245.23 117.617 1245.18 117.346 1245.18 117.073C1245.18 116.799 1245.23 116.528 1245.35 116.276C1245.46 116.024 1245.63 115.796 1245.83 115.605C1246.04 115.414 1246.29 115.264 1246.56 115.164C1246.83 115.064 1247.12 115.016 1247.41 115.023L1256.58 115.023C1256.69 115.028 1256.8 115.011 1256.9 114.974C1257.01 114.938 1257.1 114.882 1257.18 114.81C1257.26 114.739 1257.32 114.652 1257.37 114.557C1257.41 114.462 1257.43 114.359 1257.43 114.256C1257.43 114.152 1257.41 114.049 1257.37 113.954C1257.32 113.859 1257.26 113.773 1257.18 113.701C1257.1 113.629 1257.01 113.573 1256.9 113.537C1256.8 113.5 1256.69 113.483 1256.58 113.488L1247.41 113.488C1246.91 113.479 1246.4 113.564 1245.93 113.74C1245.46 113.917 1245.03 114.179 1244.67 114.513C1244.3 114.847 1244.02 115.245 1243.82 115.685C1243.62 116.124 1243.52 116.596 1243.52 117.073C1243.52 117.549 1243.62 118.021 1243.82 118.461C1244.02 118.9 1244.3 119.299 1244.67 119.632C1245.03 119.966 1245.46 120.229 1245.93 120.405C1246.4 120.581 1246.91 120.667 1247.41 120.657L1254.58 120.657C1255.27 121.834 1257.45 124.683 1262.6 124.683C1263.15 124.66 1263.7 124.589 1264.24 124.47L1264.24 135.851C1264.24 136.151 1264.11 136.439 1263.88 136.652C1263.66 136.864 1263.35 136.983 1263.03 136.984L1220.84 136.984C1220.52 136.983 1220.22 136.864 1219.99 136.653C1219.76 136.441 1219.64 136.154 1219.63 135.854L1219.63 116.156C1219.63 115.856 1219.76 115.568 1219.99 115.355C1220.21 115.143 1220.52 115.024 1220.84 115.023L1241.69 115.023C1241.8 115.028 1241.91 115.011 1242.01 114.974C1242.11 114.938 1242.21 114.882 1242.29 114.81C1242.37 114.739 1242.43 114.652 1242.47 114.557C1242.52 114.462 1242.54 114.359 1242.54 114.256C1242.54 114.152 1242.52 114.049 1242.47 113.954C1242.43 113.859 1242.37 113.773 1242.29 113.701C1242.21 113.629 1242.11 113.573 1242.01 113.537C1241.91 113.5 1241.8 113.483 1241.69 113.488L1220.84 113.488C1220.09 113.49 1219.37 113.772 1218.83 114.272C1218.3 114.772 1218 115.449 1218 116.156L1218 135.854C1218 136.561 1218.3 137.238 1218.83 137.738C1219.37 138.238 1220.09 138.52 1220.84 138.522L1263.03 138.522C1263.78 138.52 1264.5 138.238 1265.04 137.738C1265.57 137.238 1265.87 136.561 1265.87 135.854L1265.87 129.059C1268.8 128.182 1270.44 126.196 1271.04 125.327L1277.48 125.327C1277.69 125.327 1277.9 125.247 1278.05 125.103C1278.21 124.959 1278.29 124.764 1278.29 124.56L1278.29 110.13C1278.29 109.926 1278.21 109.73 1278.05 109.586C1277.9 109.442 1277.69 109.361 1277.48 109.361Z" fill="#FFFFFF" fill-opacity="1.000000" fill-rule="nonzero"/>
	<path id="Vector" d="M1228.66 130.166L1228.66 122.052C1229.54 121.897 1230.34 121.502 1230.97 120.919C1231.6 120.336 1232.03 119.591 1232.2 118.781L1246.42 118.781C1246.63 118.773 1246.83 118.688 1246.98 118.545C1247.13 118.402 1247.22 118.211 1247.22 118.012C1247.22 117.813 1247.13 117.622 1246.98 117.479C1246.83 117.335 1246.63 117.25 1246.42 117.242L1231.44 117.242C1231.22 117.242 1231.01 117.323 1230.85 117.468C1230.7 117.612 1230.61 117.808 1230.61 118.012C1230.61 118.351 1230.54 118.686 1230.4 118.999C1230.26 119.312 1230.06 119.596 1229.8 119.835C1229.54 120.075 1229.23 120.265 1228.89 120.395C1228.56 120.525 1228.19 120.592 1227.83 120.592C1227.61 120.594 1227.4 120.674 1227.24 120.817C1227.09 120.96 1227 121.154 1227 121.356L1227 130.863C1227 130.964 1227.02 131.064 1227.06 131.158C1227.11 131.251 1227.17 131.336 1227.24 131.408C1227.32 131.479 1227.41 131.536 1227.51 131.574C1227.62 131.613 1227.72 131.633 1227.83 131.632C1228.57 131.634 1229.28 131.905 1229.8 132.388C1230.32 132.87 1230.62 133.524 1230.62 134.207C1230.62 134.308 1230.64 134.408 1230.68 134.501C1230.72 134.594 1230.78 134.679 1230.86 134.751C1230.94 134.822 1231.03 134.879 1231.13 134.917C1231.23 134.956 1231.34 134.976 1231.45 134.976L1263.34 134.976C1263.45 134.976 1263.55 134.956 1263.65 134.917C1263.76 134.879 1263.85 134.822 1263.92 134.751C1264 134.679 1264.06 134.594 1264.11 134.501C1264.15 134.408 1264.17 134.308 1264.17 134.207C1264.17 133.524 1264.46 132.87 1264.99 132.388C1265.51 131.905 1266.21 131.634 1266.95 131.632C1267.06 131.633 1267.17 131.613 1267.27 131.574C1267.37 131.536 1267.46 131.479 1267.54 131.408C1267.62 131.336 1267.68 131.251 1267.72 131.158C1267.76 131.064 1267.79 130.964 1267.79 130.863L1267.79 127.385C1267.79 127.281 1267.77 127.177 1267.73 127.08C1267.69 126.983 1267.63 126.894 1267.55 126.819C1267.48 126.744 1267.38 126.685 1267.28 126.644C1267.18 126.603 1267.07 126.582 1266.95 126.582C1266.84 126.582 1266.73 126.603 1266.63 126.644C1266.52 126.685 1266.43 126.744 1266.35 126.819C1266.27 126.894 1266.21 126.983 1266.17 127.08C1266.13 127.177 1266.12 127.281 1266.12 127.385L1266.12 130.166C1265.25 130.321 1264.44 130.716 1263.81 131.299C1263.18 131.882 1262.75 132.627 1262.58 133.436L1232.2 133.436C1232.03 132.627 1231.6 131.882 1230.97 131.299C1230.34 130.716 1229.54 130.321 1228.66 130.166Z" fill="#FFFFFF" fill-opacity="1.000000" fill-rule="nonzero"/>
	<path id="Vector" d="M1247.24 123.615L1248.88 123.615C1249.05 123.607 1249.22 123.523 1249.34 123.38C1249.46 123.237 1249.53 123.047 1249.53 122.848C1249.53 122.65 1249.46 122.46 1249.34 122.317C1249.22 122.174 1249.05 122.09 1248.88 122.082L1248.34 122.082L1248.34 121.588C1248.34 121.485 1248.33 121.381 1248.3 121.285C1248.26 121.188 1248.21 121.099 1248.15 121.025C1248.09 120.95 1248.01 120.89 1247.93 120.85C1247.84 120.809 1247.75 120.788 1247.66 120.788C1247.57 120.788 1247.48 120.809 1247.39 120.85C1247.31 120.89 1247.23 120.95 1247.17 121.025C1247.1 121.099 1247.05 121.188 1247.02 121.285C1246.99 121.381 1246.97 121.485 1246.98 121.588L1246.98 122.1C1246.42 122.148 1245.9 122.442 1245.53 122.918C1245.16 123.395 1244.97 124.015 1245 124.646C1245.04 125.278 1245.29 125.868 1245.71 126.291C1246.13 126.714 1246.68 126.934 1247.24 126.905L1248.08 126.905C1248.29 126.905 1248.49 126.998 1248.63 127.163C1248.78 127.328 1248.86 127.552 1248.86 127.785C1248.86 128.019 1248.78 128.242 1248.63 128.407C1248.49 128.573 1248.29 128.665 1248.08 128.665L1246.44 128.665C1246.35 128.661 1246.26 128.678 1246.17 128.714C1246.09 128.751 1246.01 128.807 1245.94 128.878C1245.88 128.95 1245.82 129.036 1245.79 129.131C1245.75 129.226 1245.73 129.329 1245.73 129.432C1245.73 129.536 1245.75 129.638 1245.79 129.733C1245.82 129.829 1245.88 129.915 1245.94 129.986C1246.01 130.058 1246.09 130.114 1246.17 130.15C1246.26 130.187 1246.35 130.204 1246.44 130.199L1246.98 130.199L1246.98 130.693C1246.98 130.891 1247.06 131.078 1247.19 131.215C1247.31 131.352 1247.48 131.428 1247.66 131.428C1247.83 131.428 1248 131.352 1248.13 131.215C1248.26 131.078 1248.33 130.891 1248.34 130.693L1248.34 130.177C1248.9 130.129 1249.42 129.836 1249.79 129.359C1250.16 128.883 1250.35 128.261 1250.32 127.629C1250.28 126.998 1250.03 126.407 1249.61 125.984C1249.19 125.562 1248.64 125.342 1248.08 125.371L1247.24 125.371C1247.13 125.376 1247.03 125.357 1246.93 125.315C1246.83 125.273 1246.74 125.209 1246.67 125.127C1246.59 125.045 1246.53 124.946 1246.49 124.838C1246.45 124.729 1246.43 124.612 1246.43 124.493C1246.43 124.375 1246.45 124.258 1246.49 124.149C1246.53 124.041 1246.59 123.942 1246.67 123.86C1246.74 123.778 1246.83 123.714 1246.93 123.672C1247.03 123.63 1247.13 123.611 1247.24 123.615Z" fill="#FFFFFF" fill-opacity="1.000000" fill-rule="nonzero"/>
	<path id="Vector" d="M1247.26 126.371C1247.1 126.536 1247 126.759 1247 126.992C1247 127.051 1247.01 127.11 1247.02 127.168C1247.03 127.224 1247.05 127.28 1247.07 127.332C1247.09 127.387 1247.12 127.439 1247.15 127.488C1247.18 127.536 1247.22 127.581 1247.26 127.621C1247.3 127.663 1247.35 127.7 1247.39 127.733C1247.44 127.765 1247.49 127.792 1247.55 127.814C1247.6 127.836 1247.66 127.854 1247.72 127.867C1247.77 127.877 1247.83 127.883 1247.89 127.882C1248.12 127.881 1248.35 127.788 1248.51 127.621C1248.55 127.58 1248.59 127.536 1248.62 127.488C1248.66 127.438 1248.68 127.386 1248.71 127.332C1248.73 127.279 1248.74 127.224 1248.76 127.168C1248.77 127.11 1248.77 127.051 1248.77 126.992C1248.77 126.817 1248.72 126.645 1248.62 126.5C1248.52 126.354 1248.38 126.241 1248.22 126.175C1248.06 126.109 1247.88 126.092 1247.71 126.127C1247.54 126.161 1247.38 126.246 1247.26 126.371L1247.26 126.371Z" fill="#FFFFFF" fill-opacity="1.000000" fill-rule="nonzero"/>
	<path id="Vector" d="M1247.15 127.495C1247.18 127.542 1247.22 127.585 1247.26 127.625C1247.35 127.717 1247.46 127.787 1247.59 127.83C1247.71 127.874 1247.84 127.89 1247.97 127.877C1248.1 127.865 1248.23 127.824 1248.34 127.758C1248.45 127.692 1248.55 127.602 1248.62 127.495C1248.65 127.448 1248.68 127.397 1248.7 127.344C1248.73 127.292 1248.74 127.238 1248.75 127.183C1248.77 127.127 1248.77 127.071 1248.77 127.015C1248.78 126.897 1248.76 126.78 1248.72 126.671C1248.67 126.561 1248.61 126.461 1248.53 126.376C1248.44 126.291 1248.34 126.224 1248.23 126.178C1248.12 126.132 1248.01 126.108 1247.89 126.108C1247.77 126.108 1247.65 126.132 1247.54 126.178C1247.43 126.224 1247.33 126.291 1247.25 126.376C1247.16 126.461 1247.1 126.561 1247.06 126.671C1247.02 126.78 1247 126.897 1247 127.015C1247 127.071 1247.01 127.127 1247.02 127.183C1247.03 127.238 1247.05 127.292 1247.07 127.344C1247.09 127.396 1247.12 127.447 1247.15 127.495Z" fill="#FFFFFF" fill-opacity="1.000000" fill-rule="nonzero"/>
	<path id="Vector" d="M1272.76 144.642C1272.01 144.062 1271.07 143.781 1270.12 143.853C1269.18 143.925 1268.29 144.345 1267.64 145.031L1262.57 150.434C1262.5 150.509 1262.44 150.599 1262.4 150.698C1262.36 150.796 1262.34 150.902 1262.34 151.009C1262.34 151.115 1262.36 151.22 1262.41 151.317C1262.45 151.414 1262.52 151.502 1262.6 151.574C1262.67 151.646 1262.77 151.702 1262.87 151.738C1262.97 151.774 1263.08 151.789 1263.19 151.783C1263.29 151.777 1263.4 151.749 1263.5 151.702C1263.59 151.654 1263.68 151.588 1263.75 151.507L1268.82 146.104C1269.19 145.709 1269.7 145.467 1270.25 145.426C1270.79 145.384 1271.33 145.547 1271.77 145.881C1271.99 146.058 1272.18 146.277 1272.32 146.526C1272.46 146.775 1272.54 147.049 1272.58 147.332C1272.61 147.615 1272.58 147.9 1272.5 148.173C1272.42 148.446 1272.28 148.699 1272.1 148.919L1263.28 159.56C1262.64 160.335 1261.72 160.844 1260.72 160.986L1243.65 163.424C1242.78 163.55 1241.95 163.872 1241.23 164.363C1240.51 164.855 1239.91 165.504 1239.49 166.26L1239.02 167.086L1223.32 167.086L1231.45 155.226C1232.62 153.516 1234.23 152.153 1236.12 151.284C1238.02 150.416 1240.12 150.074 1242.19 150.297C1243.57 150.438 1244.92 150.734 1246.23 151.178C1247.12 151.491 1248.06 151.654 1249 151.657L1257.17 151.657C1257.79 151.658 1258.4 151.904 1258.84 152.34C1259.28 152.777 1259.53 153.369 1259.53 153.986C1259.53 154.652 1259.26 155.291 1258.78 155.762C1258.31 156.234 1257.66 156.499 1256.98 156.5L1249.5 156.5C1248.28 156.499 1247.09 156.921 1246.15 157.693L1244.39 159.131C1244.23 159.267 1244.14 159.458 1244.12 159.664C1244.1 159.869 1244.17 160.073 1244.3 160.232C1244.44 160.39 1244.63 160.491 1244.83 160.513C1245.04 160.535 1245.25 160.476 1245.42 160.348L1247.17 158.91C1247.82 158.376 1248.65 158.083 1249.49 158.083L1256.98 158.083C1258.08 158.081 1259.13 157.649 1259.91 156.882C1260.69 156.115 1261.13 155.074 1261.13 153.989C1261.13 152.952 1260.71 151.959 1259.97 151.226C1259.22 150.493 1258.22 150.081 1257.17 150.08L1249 150.08C1248.24 150.075 1247.49 149.944 1246.77 149.69C1245.34 149.204 1243.87 148.88 1242.37 148.725C1240 148.469 1237.61 148.857 1235.45 149.847C1233.29 150.836 1231.45 152.389 1230.12 154.337L1221.14 167.428C1221.06 167.547 1221.01 167.686 1221 167.831C1220.99 167.975 1221.02 168.119 1221.09 168.247C1221.16 168.374 1221.26 168.481 1221.39 168.556C1221.52 168.63 1221.66 168.669 1221.81 168.668L1239.49 168.668C1239.64 168.667 1239.78 168.628 1239.9 168.556C1240.02 168.483 1240.12 168.379 1240.19 168.255L1240.89 167.015C1241.2 166.472 1241.63 166.006 1242.14 165.653C1242.66 165.3 1243.26 165.069 1243.88 164.978L1260.96 162.55C1262.36 162.352 1263.63 161.641 1264.52 160.56L1273.34 149.92C1273.66 149.538 1273.9 149.097 1274.04 148.624C1274.19 148.15 1274.23 147.653 1274.18 147.162C1274.12 146.671 1273.97 146.195 1273.73 145.762C1273.49 145.329 1273.16 144.949 1272.77 144.642L1272.76 144.642Z" fill="#FFFFFF" fill-opacity="1.000000" fill-rule="nonzero"/>
	<path id="Шаг 1" d="M124.217 246.594L128.357 246.594L128.357 271.794L99.3774 271.794L99.3774 246.594L103.517 246.594L103.517 267.834L111.797 267.834L111.797 246.594L115.937 246.594L115.937 267.834L124.217 267.834L124.217 246.594ZM147.413 253.794L151.301 253.794L151.301 271.794L147.413 271.794L147.413 269.202C145.949 271.242 143.849 272.262 141.113 272.262C138.641 272.262 136.529 271.35 134.777 269.526C133.025 267.678 132.149 265.434 132.149 262.794C132.149 260.13 133.025 257.886 134.777 256.062C136.529 254.238 138.641 253.326 141.113 253.326C143.849 253.326 145.949 254.334 147.413 256.35L147.413 253.794ZM137.657 266.934C138.737 268.014 140.093 268.554 141.725 268.554C143.357 268.554 144.713 268.014 145.793 266.934C146.873 265.83 147.413 264.45 147.413 262.794C147.413 261.138 146.873 259.77 145.793 258.69C144.713 257.586 143.357 257.034 141.725 257.034C140.093 257.034 138.737 257.586 137.657 258.69C136.577 259.77 136.037 261.138 136.037 262.794C136.037 264.45 136.577 265.83 137.657 266.934ZM167.892 253.794L167.892 257.538L159.72 257.538L159.72 271.794L155.832 271.794L155.832 253.794L167.892 253.794ZM184.352 246.594L187.952 246.594L187.952 271.794L183.812 271.794L183.812 251.022L178.736 252.462L177.728 248.934L184.352 246.594Z" fill="#000000" fill-opacity="1.000000" fill-rule="evenodd"/>
	<path id="Шаг 2" d="M391.36 246.594L395.5 246.594L395.5 271.794L366.52 271.794L366.52 246.594L370.66 246.594L370.66 267.834L378.94 267.834L378.94 246.594L383.08 246.594L383.08 267.834L391.36 267.834L391.36 246.594ZM414.555 253.794L418.443 253.794L418.443 271.794L414.555 271.794L414.555 269.202C413.091 271.242 410.991 272.262 408.255 272.262C405.783 272.262 403.671 271.35 401.919 269.526C400.167 267.678 399.291 265.434 399.291 262.794C399.291 260.13 400.167 257.886 401.919 256.062C403.671 254.238 405.783 253.326 408.255 253.326C410.991 253.326 413.091 254.334 414.555 256.35L414.555 253.794ZM404.799 266.934C405.879 268.014 407.235 268.554 408.867 268.554C410.499 268.554 411.855 268.014 412.935 266.934C414.015 265.83 414.555 264.45 414.555 262.794C414.555 261.138 414.015 259.77 412.935 258.69C411.855 257.586 410.499 257.034 408.867 257.034C407.235 257.034 405.879 257.586 404.799 258.69C403.719 259.77 403.179 261.138 403.179 262.794C403.179 264.45 403.719 265.83 404.799 266.934ZM435.035 253.794L435.035 257.538L426.863 257.538L426.863 271.794L422.975 271.794L422.975 253.794L435.035 253.794ZM445.518 271.794L445.518 268.554L454.302 259.59C456.438 257.454 457.506 255.606 457.506 254.046C457.506 252.822 457.134 251.874 456.39 251.202C455.67 250.506 454.746 250.158 453.618 250.158C451.506 250.158 449.946 251.202 448.938 253.29L445.446 251.238C446.238 249.558 447.354 248.286 448.794 247.422C450.234 246.558 451.83 246.126 453.582 246.126C455.79 246.126 457.686 246.822 459.27 248.214C460.854 249.606 461.646 251.502 461.646 253.902C461.646 256.47 460.218 259.206 457.362 262.11L451.674 267.798L462.114 267.798L462.114 271.794L445.518 271.794Z" fill="#000000" fill-opacity="1.000000" fill-rule="evenodd"/>
	<path id="Шаг 3" d="M664.36 246.594L668.5 246.594L668.5 271.794L639.52 271.794L639.52 246.594L643.66 246.594L643.66 267.834L651.94 267.834L651.94 246.594L656.08 246.594L656.08 267.834L664.36 267.834L664.36 246.594ZM687.555 253.794L691.443 253.794L691.443 271.794L687.555 271.794L687.555 269.202C686.091 271.242 683.991 272.262 681.255 272.262C678.783 272.262 676.671 271.35 674.919 269.526C673.167 267.678 672.291 265.434 672.291 262.794C672.291 260.13 673.167 257.886 674.919 256.062C676.671 254.238 678.783 253.326 681.255 253.326C683.991 253.326 686.091 254.334 687.555 256.35L687.555 253.794ZM677.799 266.934C678.879 268.014 680.235 268.554 681.867 268.554C683.499 268.554 684.855 268.014 685.935 266.934C687.015 265.83 687.555 264.45 687.555 262.794C687.555 261.138 687.015 259.77 685.935 258.69C684.855 257.586 683.499 257.034 681.867 257.034C680.235 257.034 678.879 257.586 677.799 258.69C676.719 259.77 676.179 261.138 676.179 262.794C676.179 264.45 676.719 265.83 677.799 266.934ZM708.035 253.794L708.035 257.538L699.863 257.538L699.863 271.794L695.975 271.794L695.975 253.794L708.035 253.794ZM729.426 256.89C731.25 257.322 732.726 258.174 733.854 259.446C735.006 260.694 735.582 262.266 735.582 264.162C735.582 266.682 734.73 268.662 733.026 270.102C731.322 271.542 729.234 272.262 726.762 272.262C724.842 272.262 723.114 271.818 721.578 270.93C720.066 270.042 718.974 268.746 718.302 267.042L721.83 264.99C722.574 267.15 724.218 268.23 726.762 268.23C728.202 268.23 729.342 267.87 730.182 267.15C731.022 266.406 731.442 265.41 731.442 264.162C731.442 262.914 731.022 261.93 730.182 261.21C729.342 260.49 728.202 260.13 726.762 260.13L725.826 260.13L724.17 257.646L729.606 250.482L719.058 250.482L719.058 246.594L734.538 246.594L734.538 250.122L729.426 256.89Z" fill="#000000" fill-opacity="1.000000" fill-rule="evenodd"/>
	<path id="Шаг 4" d="M937.36 246.594L941.5 246.594L941.5 271.794L912.52 271.794L912.52 246.594L916.66 246.594L916.66 267.834L924.94 267.834L924.94 246.594L929.08 246.594L929.08 267.834L937.36 267.834L937.36 246.594ZM960.555 253.794L964.443 253.794L964.443 271.794L960.555 271.794L960.555 269.202C959.091 271.242 956.991 272.262 954.255 272.262C951.783 272.262 949.671 271.35 947.919 269.526C946.167 267.678 945.291 265.434 945.291 262.794C945.291 260.13 946.167 257.886 947.919 256.062C949.671 254.238 951.783 253.326 954.255 253.326C956.991 253.326 959.091 254.334 960.555 256.35L960.555 253.794ZM950.799 266.934C951.879 268.014 953.235 268.554 954.867 268.554C956.499 268.554 957.855 268.014 958.935 266.934C960.015 265.83 960.555 264.45 960.555 262.794C960.555 261.138 960.015 259.77 958.935 258.69C957.855 257.586 956.499 257.034 954.867 257.034C953.235 257.034 951.879 257.586 950.799 258.69C949.719 259.77 949.179 261.138 949.179 262.794C949.179 264.45 949.719 265.83 950.799 266.934ZM981.035 253.794L981.035 257.538L972.863 257.538L972.863 271.794L968.975 271.794L968.975 253.794L981.035 253.794ZM1010.67 263.406L1010.67 267.258L1007.79 267.258L1007.79 271.794L1003.61 271.794L1003.61 267.258L991.23 267.258L991.23 263.406L999.906 246.594L1004.41 246.594L995.73 263.406L1003.61 263.406L1003.61 256.854L1007.79 256.854L1007.79 263.406L1010.67 263.406Z" fill="#000000" fill-opacity="1.000000" fill-rule="evenodd"/>
	<path id="Шаг 5" d="M1212.36 246.594L1216.5 246.594L1216.5 271.794L1187.52 271.794L1187.52 246.594L1191.66 246.594L1191.66 267.834L1199.94 267.834L1199.94 246.594L1204.08 246.594L1204.08 267.834L1212.36 267.834L1212.36 246.594ZM1235.56 253.794L1239.44 253.794L1239.44 271.794L1235.56 271.794L1235.56 269.202C1234.09 271.242 1231.99 272.262 1229.26 272.262C1226.78 272.262 1224.67 271.35 1222.92 269.526C1221.17 267.678 1220.29 265.434 1220.29 262.794C1220.29 260.13 1221.17 257.886 1222.92 256.062C1224.67 254.238 1226.78 253.326 1229.26 253.326C1231.99 253.326 1234.09 254.334 1235.56 256.35L1235.56 253.794ZM1225.8 266.934C1226.88 268.014 1228.24 268.554 1229.87 268.554C1231.5 268.554 1232.86 268.014 1233.94 266.934C1235.02 265.83 1235.56 264.45 1235.56 262.794C1235.56 261.138 1235.02 259.77 1233.94 258.69C1232.86 257.586 1231.5 257.034 1229.87 257.034C1228.24 257.034 1226.88 257.586 1225.8 258.69C1224.72 259.77 1224.18 261.138 1224.18 262.794C1224.18 264.45 1224.72 265.83 1225.8 266.934ZM1256.04 253.794L1256.04 257.538L1247.86 257.538L1247.86 271.794L1243.97 271.794L1243.97 253.794L1256.04 253.794ZM1275.3 256.098C1277.7 256.098 1279.73 256.818 1281.39 258.258C1283.04 259.674 1283.87 261.642 1283.87 264.162C1283.87 266.682 1283.02 268.662 1281.31 270.102C1279.61 271.542 1277.52 272.262 1275.05 272.262C1273.06 272.262 1271.29 271.806 1269.76 270.894C1268.22 269.958 1267.13 268.614 1266.48 266.862L1270.05 264.81C1270.72 267.09 1272.39 268.23 1275.05 268.23C1276.47 268.23 1277.59 267.87 1278.43 267.15C1279.3 266.406 1279.73 265.41 1279.73 264.162C1279.73 262.914 1279.31 261.93 1278.47 261.21C1277.63 260.49 1276.51 260.13 1275.12 260.13L1267.78 260.13L1268.75 246.594L1282.79 246.594L1282.79 250.482L1272.57 250.482L1272.13 256.098L1275.3 256.098Z" fill="#000000" fill-opacity="1.000000" fill-rule="evenodd"/>
</svg>
