<svg width="40.498901" height="38.523285" viewBox="0 0 40.4989 38.5233" fill="none" xmlns="http://www.w3.org/2000/svg" xmlns:xlink="http://www.w3.org/1999/xlink">
	<desc>
			Created with Pixso.
	</desc>
	<defs/>
	<rect id="Component 5" width="40.498856" height="38.523300" fill="#FFFFFF" fill-opacity="0"/>
	<path id="Vector" d="M2.14478 10.7207C3.42688 8.23709 5.23828 6.13794 7.52112 4.39249C10.6145 2.01654 14.163 0.586365 18.1414 0.148071C22.8147 -0.367096 27.2067 0.455627 31.2678 2.71625C32.277 3.27756 33.2198 3.91577 34.1215 4.60779C34.3447 4.77695 34.3199 4.87692 34.1298 5.04608C32.2853 6.75308 30.4408 8.46008 28.6128 10.1824C28.3977 10.3824 28.282 10.367 28.0503 10.2055C22.6906 6.36862 14.8743 7.40665 10.8793 12.4815C10.1761 13.3734 9.60547 14.3346 9.20837 15.3803C9.17529 15.4726 9.10913 15.5572 9.05957 15.6494C7.99255 14.8959 6.91724 14.1424 5.85852 13.3811C4.61792 12.4969 3.3772 11.6126 2.14478 10.7207Z" fill="#E94335" fill-opacity="1.000000" fill-rule="nonzero"/>
	<path id="Vector" d="M9.05908 22.8618C9.41467 23.5923 9.7124 24.3535 10.1591 25.0379C12.0367 27.8982 14.7166 29.736 18.2484 30.3896C21.4329 30.9816 24.4932 30.5818 27.3468 29.0977C27.446 29.0516 27.5453 29.0055 27.6362 28.9594C27.6859 29.0055 27.7273 29.0593 27.7769 29.0977C29.9109 30.6356 32.0531 32.1734 34.1871 33.7113C33.1615 34.657 31.9952 35.4182 30.7545 36.0796C27.1565 37.9864 23.2607 38.7553 19.1582 38.4632C14.0466 38.0941 9.63806 36.2179 5.99866 32.8347C4.40234 31.3507 3.08716 29.6745 2.13599 27.7599C3.021 27.1294 3.90601 26.5065 4.79102 25.876C6.21375 24.8687 7.63635 23.8691 9.05908 22.8618Z" fill="#34A853" fill-opacity="1.000000" fill-rule="nonzero"/>
	<path id="Vector" d="M34.1962 33.7113C32.0623 32.1735 29.9199 30.6357 27.786 29.0979C27.7363 29.0594 27.6868 29.0056 27.6454 28.9594C28.3815 28.4289 29.1342 27.9137 29.738 27.2371C30.7471 26.1145 31.417 24.8457 31.7644 23.4232C31.8058 23.2464 31.7727 23.1849 31.5825 23.1926C31.4832 23.2003 31.3922 23.1926 31.293 23.1926C27.9183 23.1926 24.5354 23.1849 21.1606 23.2003C20.7885 23.2003 20.7058 23.108 20.714 22.7774C20.7306 20.5475 20.7306 18.3177 20.714 16.0878C20.714 15.8033 20.7968 15.7264 21.1028 15.7264C27.2897 15.7341 33.4766 15.7341 39.6718 15.7264C39.9364 15.7264 40.0439 15.7879 40.1101 16.0493C40.6146 18.1638 40.5815 20.2861 40.2755 22.4237C40.0275 24.1306 39.5808 25.7838 38.8943 27.3831C37.8768 29.7437 36.3798 31.8044 34.4113 33.573C34.3368 33.6267 34.2623 33.6652 34.1962 33.7113Z" fill="#4285F3" fill-opacity="1.000000" fill-rule="nonzero"/>
	<path id="Vector" d="M9.05884 22.8621C7.63623 23.8694 6.21362 24.8689 4.79089 25.8763C3.90588 26.4991 3.02087 27.1295 2.13586 27.7601C1.44934 26.576 1.00269 25.3226 0.638794 24.0309C-0.0560303 21.5318 -0.163574 18.9944 0.216919 16.4493C0.514648 14.4501 1.13501 12.5279 2.13586 10.7286C3.37659 11.6128 4.60901 12.5048 5.84961 13.389C6.91663 14.1502 7.98364 14.9038 9.05066 15.6573C8.86865 16.4801 8.61218 17.2874 8.52954 18.1333C8.38062 19.6711 8.53784 21.1704 9.00928 22.6468C9.04236 22.7083 9.05066 22.7852 9.05884 22.8621Z" fill="#FABB06" fill-opacity="1.000000" fill-rule="nonzero"/>
</svg>
