<svg width="44.000000" height="44.000000" viewBox="0 0 44 44" fill="none" xmlns="http://www.w3.org/2000/svg" xmlns:xlink="http://www.w3.org/1999/xlink">
	<desc>
			Created with Pixso.
	</desc>
	<defs>
		<filter id="filter_685_985_dd" x="0.000000" y="0.000000" width="44.000000" height="44.000000" filterUnits="userSpaceOnUse" color-interpolation-filters="sRGB">
			<feFlood flood-opacity="0" result="BackgroundImageFix"/>
			<feColorMatrix in="SourceAlpha" type="matrix" values="0 0 0 0 0 0 0 0 0 0 0 0 0 0 0 0 0 0 127 0" result="hardAlpha"/>
			<feOffset dx="0" dy="4"/>
			<feGaussianBlur stdDeviation="1.33333"/>
			<feComposite in2="hardAlpha" operator="out" k2="-1" k3="1"/>
			<feColorMatrix type="matrix" values="0 0 0 0 0 0 0 0 0 0 0 0 0 0 0 0 0 0 0.25 0"/>
			<feBlend mode="normal" in2="BackgroundImageFix" result="effect_dropShadow_1"/>
			<feBlend mode="normal" in="SourceGraphic" in2="effect_dropShadow_1" result="shape"/>
		</filter>
		<clipPath id="clip685_985">
			<rect id="graph-10_icon-icons.com_58030 2" width="36.000000" height="36.000000" transform="translate(4.000000 0.000000)" fill="white" fill-opacity="0"/>
		</clipPath>
	</defs>
	<g filter="url(#filter_685_985_dd)">
		<rect id="graph-10_icon-icons.com_58030 2" width="36.000000" height="36.000000" transform="translate(4.000000 0.000000)" fill="#FFFFFF" fill-opacity="0"/>
		<g clip-path="url(#clip685_985)">
			<path id="Vector" d="M4.5459 33.7191L39.9995 33.7191L39.9995 36L4.5459 36L4.5459 33.7191Z" fill="#EDF2FF" fill-opacity="1.000000" fill-rule="evenodd"/>
			<path id="Vector" d="M34.4102 15.3119L37.4033 15.3119L37.4033 32.7958L34.4102 32.7958L34.4102 15.3119Z" fill="#EDF2FF" fill-opacity="1.000000" fill-rule="evenodd"/>
			<path id="Vector" d="M28.8203 17.7285L31.8149 17.7285L31.8149 32.7958L28.8203 32.7958L28.8203 17.7285Z" fill="#EDF2FF" fill-opacity="1.000000" fill-rule="evenodd"/>
			<path id="Vector" d="M23.2295 20.0369L26.2241 20.0369L26.2241 32.7958L23.2295 32.7958L23.2295 20.0369Z" fill="#EDF2FF" fill-opacity="1.000000" fill-rule="evenodd"/>
			<path id="Vector" d="M17.6387 24.054L20.6333 24.054L20.6333 32.7959L17.6387 32.7959L17.6387 24.054Z" fill="#EDF2FF" fill-opacity="1.000000" fill-rule="evenodd"/>
			<path id="Vector" d="M12.0469 26.6611L15.0415 26.6611L15.0415 32.7959L12.0469 32.7959L12.0469 26.6611Z" fill="#EDF2FF" fill-opacity="1.000000" fill-rule="evenodd"/>
			<path id="Vector" d="M6.45801 28.5067L9.45117 28.5067L9.45117 32.7958L6.45801 32.7958L6.45801 28.5067Z" fill="#EDF2FF" fill-opacity="1.000000" fill-rule="evenodd"/>
			<path id="Vector" d="M31.4541 8.95996L35.5479 10.2628L32.9521 0L21.7705 6.18958L25.8638 7.65637C18.7769 21.6647 4 27.6384 4 27.6384C25.9644 21.7195 31.4541 8.95996 31.4541 8.95996Z" fill="#EDF2FF" fill-opacity="1.000000" fill-rule="nonzero"/>
		</g>
	</g>
</svg>
