<svg width="111.172424" height="111.172424" viewBox="0 0 111.172 111.172" fill="none" xmlns="http://www.w3.org/2000/svg" xmlns:xlink="http://www.w3.org/1999/xlink">
	<desc>
			Created with Pixso.
	</desc>
	<defs/>
	<path id="Vector" d="M84.6564 41.1636L84.8002 41.3714L96.3639 58.217C96.4532 58.3492 96.3639 58.5476 96.2399 58.5524L85.8569 58.6987C85.8253 58.6979 85.7946 58.6885 85.7682 58.6718C85.7419 58.6552 85.7211 58.6317 85.7081 58.6042C85.0929 57.3764 78.3214 44.9087 77.1408 42.7221C77.0664 42.5851 77.1408 42.4057 77.2797 42.4057C78.3611 42.4246 81.8337 42.3726 84.6564 41.1636Z" fill="#2A5099" fill-opacity="1.000000" fill-rule="nonzero"/>
	<path id="Vector" d="M75.3575 21.0197C75.3575 21.0197 92.0928 20.0851 92.8572 30.5144C93.7706 42.9388 76.718 43.392 76.2613 42.7285C76.3238 41.294 75.3575 21.0197 75.3575 21.0197Z" fill="#2A5099" fill-opacity="1.000000" fill-rule="nonzero"/>
	<path id="Vector" d="M76.2338 27.3276C76.2338 27.3276 84.6493 25.6516 84.9912 32.1997C85.3331 38.7479 76.9011 38.7576 76.6992 38.4214C76.6992 37.6808 76.2338 27.3276 76.2338 27.3276Z" fill="#E3D7F1" fill-opacity="1.000000" fill-rule="nonzero"/>
	<path id="Vector" d="M71.8496 21.8748L70.9728 6.96997" stroke="#2A5099" stroke-opacity="1.000000" stroke-width="1.034483"/>
	<path id="Vector" d="M42.0407 104.906L41.1639 90.0013" stroke="#2A5099" stroke-opacity="1.000000" stroke-width="1.034483"/>
	<path id="Vector" d="M35.084 54.0057L36.8261 90.8781L44.6697 90.468L43.9657 74.7275L43.9521 74.4095L42.9593 52.3008L35.0254 52.7202L35.084 54.0057Z" fill="#2A5099" fill-opacity="1.000000" fill-rule="nonzero"/>
	<path id="Vector" d="M36.8261 90.8781L44.6697 90.468L43.9657 74.7275L43.9521 74.4095L42.9593 52.3008L35.0254 52.7202L35.084 54.0057L36.8261 90.8781Z" stroke="#7092D4" stroke-opacity="1.000000" stroke-width="0.517241"/>
	<path id="Vector" d="M55.6552 28.8889L54.3153 28.9382L54.6676 37.6526L56.0076 37.6033L55.6552 28.8889Z" fill="#2A5099" fill-opacity="1.000000" fill-rule="nonzero"/>
	<path id="Vector" d="M55.6552 28.8889L56.0076 37.6033L54.6676 37.6526L54.3153 28.9382L55.6552 28.8889Z" stroke="#7092D4" stroke-opacity="1.000000" stroke-width="0.129310"/>
	<path id="Vector" d="M39.4412 43.909L38.1013 43.9583L38.4338 52.1805L39.7737 52.1311L39.4412 43.909Z" fill="#2A5099" fill-opacity="1.000000" fill-rule="nonzero"/>
	<path id="Vector" d="M39.4412 43.909L39.7737 52.1311L38.4338 52.1805L38.1013 43.9583L39.4412 43.909Z" stroke="#7092D4" stroke-opacity="1.000000" stroke-width="0.129310"/>
	<path id="Vector" d="M58.2825 74.4802L56.9447 74.5697L57.5237 82.7781L58.8615 82.6887L58.2825 74.4802Z" fill="#2A5099" fill-opacity="1.000000" fill-rule="nonzero"/>
	<path id="Vector" d="M58.2825 74.4802L58.8615 82.6887L57.5237 82.7781L56.9447 74.5697L58.2825 74.4802Z" stroke="#7092D4" stroke-opacity="1.000000" stroke-width="0.129310"/>
	<path id="Vector" d="M74.1506 59.0882L72.8107 59.1376L73.1431 67.3597L74.483 67.3103L74.1506 59.0882Z" fill="#2A5099" fill-opacity="1.000000" fill-rule="nonzero"/>
	<path id="Vector" d="M74.1506 59.0882L74.483 67.3103L73.1431 67.3597L72.8107 59.1376L74.1506 59.0882Z" stroke="#7092D4" stroke-opacity="1.000000" stroke-width="0.129310"/>
	<path id="Vector" d="M51.7343 38.4846L53.4734 75.357L61.3289 74.9469L60.6197 59.2017L60.6061 58.8884L59.6124 36.7797L51.6846 37.1898L51.7343 38.4846Z" fill="#2A5099" fill-opacity="1.000000" fill-rule="nonzero"/>
	<path id="Vector" d="M68.384 22.7033L70.1404 59.5754L77.9877 59.1667L77.2743 43.4248L77.2608 43.11L76.299 20.9981L68.3434 21.4115L68.384 22.7033Z" fill="#2A5099" fill-opacity="1.000000" fill-rule="nonzero"/>
	<path id="Vector" d="M55.5862 108.586C26.3151 108.586 2.58621 84.8573 2.58621 55.5862C2.58621 26.3151 26.3151 2.58621 55.5862 2.58621C84.8573 2.58621 108.586 26.3151 108.586 55.5862C108.586 84.8573 84.8573 108.586 55.5862 108.586Z" stroke="#2A5099" stroke-opacity="1.000000" stroke-width="5.172414"/>
</svg>
