<svg width="204.590820" height="204.590820" viewBox="0 0 204.591 204.591" fill="none" xmlns="http://www.w3.org/2000/svg" xmlns:xlink="http://www.w3.org/1999/xlink">
	<desc>
			Created with Pixso.
	</desc>
	<defs/>
	<path id="Vector" d="M153.077 56.678C153.077 55.1797 153.344 55.9824 136.292 38.8862C135.116 37.7627 139.312 38.1104 70.2231 38.1104C69.5142 38.1104 68.8345 38.3923 68.333 38.894C67.832 39.3958 67.5503 40.0762 67.5503 40.7859L67.5503 54.1631L54.187 54.1631C53.478 54.1631 52.7983 54.4448 52.2969 54.9468C51.7959 55.4485 51.5142 56.1289 51.5142 56.8384L51.5142 163.856C51.5142 164.565 51.7959 165.246 52.2969 165.748C52.7983 166.25 53.478 166.531 54.187 166.531L134.368 166.531C135.077 166.531 135.756 166.25 136.258 165.748C136.759 165.246 137.041 164.565 137.041 163.856L137.041 150.479L150.404 150.479C151.113 150.479 151.792 150.197 152.294 149.695C152.795 149.193 153.077 148.513 153.077 147.803C153.077 59.0056 153.077 57.4004 153.077 56.678ZM143.963 54.1631L137.041 54.1631L137.041 47.2336L143.963 54.1631ZM131.695 161.18L56.8594 161.18L56.8594 59.5139L115.659 59.5139L115.659 72.8911C115.659 73.6006 115.94 74.2812 116.442 74.783C116.943 75.2847 117.623 75.5667 118.332 75.5667L131.695 75.5667L131.695 161.18ZM121.004 63.2864L127.927 70.2156L121.004 70.2156L121.004 63.2864ZM137.041 145.128C137.041 72.0884 137.334 73.0249 136.773 71.7942C136.479 71.0986 137.815 72.5432 120.229 54.939C119.08 53.8152 121.138 54.1631 72.8955 54.1631L72.8955 43.4612L131.695 43.4612L131.695 56.8384C131.695 57.5481 131.977 58.2285 132.478 58.7302C132.979 59.2319 133.659 59.5139 134.368 59.5139L147.731 59.5139L147.731 145.128L137.041 145.128Z" fill="#A790C6" fill-opacity="1.000000" fill-rule="nonzero"/>
	<circle id="Ellipse 18" cx="102.295410" cy="102.295410" r="99.795410" stroke="#A790C6" stroke-opacity="1.000000" stroke-width="5.000000"/>
	<path id="Vector" d="M72.189 87.9922C73.6738 86.5073 76.0815 86.5071 77.5669 87.9922L95.4922 105.918L113.418 87.9922C114.903 86.5071 117.311 86.5071 118.796 87.9922C120.281 89.4771 120.281 91.8848 118.796 93.3699L100.87 111.296L118.796 129.221C120.281 130.706 120.281 133.114 118.796 134.599C117.311 136.084 114.903 136.084 113.418 134.599L95.4922 116.673L77.5669 134.599C76.0815 136.084 73.6738 136.084 72.189 134.599C70.7041 133.114 70.7041 130.706 72.189 129.221L90.1147 111.296L72.189 93.3699C70.7041 91.8848 70.7041 89.4773 72.189 87.9922Z" fill="#A790C6" fill-opacity="1.000000" fill-rule="nonzero"/>
</svg>
