<svg width="202.500000" height="202.500000" viewBox="0 0 202.5 202.5" fill="none" xmlns="http://www.w3.org/2000/svg" xmlns:xlink="http://www.w3.org/1999/xlink">
	<desc>
			Created with Pixso.
	</desc>
	<defs/>
	<circle id="Ellipse 17" cx="101.250000" cy="101.250000" r="98.750000" stroke="#A790C6" stroke-opacity="1.000000" stroke-width="5.000000"/>
	<path id="Vector" d="M59.5825 147.348C58.4482 147.348 57.3135 146.915 56.4482 146.05C54.7158 144.318 54.7158 141.513 56.4482 139.782L139.778 56.4521C141.511 54.7197 144.315 54.7197 146.046 56.4521C147.778 58.1826 147.778 60.9893 146.046 62.7197L62.7158 146.05C61.8521 146.915 60.7173 147.348 59.5825 147.348Z" fill="#A790C6" fill-opacity="1.000000" fill-rule="nonzero"/>
	<path id="Vector" d="M72.0962 91.5894C67.1016 91.5894 62.1069 89.6885 58.3057 85.8872C50.7017 78.2832 50.7017 65.9111 58.3057 58.3066C65.9121 50.7026 78.2856 50.7026 85.8882 58.3066C93.4927 65.9111 93.4927 78.2847 85.8882 85.8872C82.0835 89.6885 77.0908 91.5894 72.0962 91.5894ZM64.5718 79.6182C68.7202 83.7671 75.4683 83.7651 79.6172 79.6182C83.7642 75.4712 83.7642 68.7212 79.6172 64.5728C75.4702 60.4253 68.7202 60.4253 64.5732 64.5728C60.4263 68.7212 60.4263 75.4712 64.5718 79.6182Z" fill="#A790C6" fill-opacity="1.000000" fill-rule="nonzero"/>
	<path id="Vector" d="M130.402 149.897C125.41 149.897 120.415 147.997 116.614 144.193C112.93 140.511 110.899 135.612 110.899 130.405C110.899 125.196 112.93 120.297 116.614 116.615C120.296 112.931 125.195 110.9 130.404 110.9C135.613 110.9 140.51 112.931 144.192 116.615C151.797 124.219 151.797 136.591 144.192 144.195C140.391 147.997 135.398 149.897 130.402 149.897ZM130.404 119.765C127.562 119.765 124.892 120.872 122.881 122.882C120.871 124.893 119.764 127.565 119.764 130.405C119.764 133.245 120.871 135.916 122.881 137.926C127.028 142.073 133.776 142.077 137.925 137.926C142.072 133.777 142.072 127.029 137.925 122.882C135.916 120.872 133.244 119.765 130.404 119.765Z" fill="#A790C6" fill-opacity="1.000000" fill-rule="nonzero"/>
</svg>
