<svg width="202.500000" height="202.500000" viewBox="0 0 202.5 202.5" fill="none" xmlns="http://www.w3.org/2000/svg" xmlns:xlink="http://www.w3.org/1999/xlink">
	<desc>
			Created with Pixso.
	</desc>
	<defs/>
	<circle id="Ellipse 17" cx="101.250000" cy="101.250000" r="98.750000" stroke="#A790C6" stroke-opacity="1.000000" stroke-width="5.000000"/>
	<path id="Vector" d="M103.667 33.6023C102.601 32.0054 99.9561 32.0054 98.8892 33.6023C94.5654 40.0847 60.7832 55.2908 48.4429 55.2908C46.8584 55.2908 44.4409 56.5784 44.4409 58.1628L44.4409 112.712C44.4409 140.782 96.459 169.174 99.3438 169.988C99.5962 170.058 100.423 170.095 100.688 170.095C100.953 170.095 102.626 170.058 102.878 169.988C105.271 169.313 158.059 138.813 158.059 115.584L158.059 58.1628C158.059 56.5784 155.642 55.2908 154.057 55.2908C140.228 55.2908 107.865 39.8892 103.667 33.6023ZM151.747 115.584C151.747 132.917 108.591 160.261 101.256 164.086C94.0923 160.438 50.7529 135.032 50.7529 112.712L50.7529 60.8455C69.6895 59.2231 92.1606 47.6089 101.269 39.4285C110.156 47.5205 132.811 59.3621 151.747 60.8706L151.747 115.584Z" fill="#A790C6" fill-opacity="1.000000" fill-rule="nonzero"/>
	<path id="Line 58" d="M71.9951 98.0415L93.6382 119.685" stroke="#A790C6" stroke-opacity="1.000000" stroke-width="7.000000" stroke-linecap="round"/>
	<path id="Line 59" d="M88.6885 119.685L130.507 77.8657" stroke="#A790C6" stroke-opacity="1.000000" stroke-width="7.000000" stroke-linecap="round"/>
</svg>
