<svg width="202.500000" height="202.500000" viewBox="0 0 202.5 202.5" fill="none" xmlns="http://www.w3.org/2000/svg" xmlns:xlink="http://www.w3.org/1999/xlink">
	<desc>
			Created with Pixso.
	</desc>
	<defs/>
	<circle id="Ellipse 17" cx="101.250000" cy="101.250000" r="98.750000" stroke="#A790C6" stroke-opacity="1.000000" stroke-width="5.000000"/>
	<path id="Vector" d="M107.91 100.116L96.0991 100.116C90.6514 100.116 86.2134 95.6812 86.2134 90.2227C86.2134 84.772 90.6514 80.332 96.0991 80.332L117.544 80.332C119.598 80.332 121.269 78.6621 121.269 76.6055C121.269 74.5425 119.598 72.877 117.544 72.877L105.731 72.877L105.731 65.1899C105.731 63.1333 104.061 61.46 102.004 61.46C99.9409 61.46 98.2705 63.1318 98.2705 65.1899L98.2705 72.877L96.0977 72.877C86.5322 72.877 78.7563 80.6616 78.7563 90.2227C78.7563 99.6338 86.2808 107.314 95.6289 107.567C95.6978 107.573 95.7729 107.576 95.8447 107.576L107.91 107.576C113.358 107.576 117.796 112.01 117.796 117.464C117.796 122.919 113.358 127.354 107.91 127.354L85.5986 127.354C83.5425 127.354 81.8628 129.024 81.8628 131.086C81.8628 133.144 83.5425 134.816 85.5986 134.816L98.2725 134.816L98.2725 142.497C98.2725 144.559 99.9429 146.225 102.005 146.225C104.062 146.225 105.732 144.559 105.732 142.497L105.732 134.816L107.912 134.816C117.477 134.816 125.256 127.031 125.256 117.464C125.254 107.901 117.476 100.116 107.91 100.116ZM101.25 30.9702C62.4971 30.9702 30.9697 62.4976 30.9697 101.25C30.9697 140.003 62.4971 171.53 101.25 171.53C140.003 171.53 171.53 140.003 171.53 101.25C171.53 62.4976 140.003 30.9702 101.25 30.9702ZM101.25 163.868C66.7222 163.868 38.6318 135.778 38.6318 101.25C38.6318 66.7227 66.7222 38.6323 101.25 38.6323C135.778 38.6323 163.868 66.7227 163.868 101.25C163.868 135.778 135.778 163.868 101.25 163.868Z" fill="#A790C6" fill-opacity="1.000000" fill-rule="nonzero"/>
</svg>
