<svg width="39.412231" height="39.412231" viewBox="0 0 39.4122 39.4122" fill="none" xmlns="http://www.w3.org/2000/svg" xmlns:xlink="http://www.w3.org/1999/xlink">
	<desc>
			Created with Pixso.
	</desc>
	<defs/>
	<rect id="Component 4" width="39.412254" height="39.412254" fill="#FFFFFF" fill-opacity="0"/>
	<rect id="Rectangle 185" rx="3.000000" width="39.412254" height="39.412254" fill="#37AEE2" fill-opacity="1.000000"/>
	<path id="Vector" d="M14.6005 30.8444C13.7542 30.8444 13.8311 30.5447 13.6002 29.7953L11.1383 21.9279L29.9877 11.1382L14.6005 30.8444Z" fill="#C8DAEA" fill-opacity="1.000000" fill-rule="nonzero"/>
	<path id="Vector" d="M14.5654 30.8444C15.057 30.8444 15.3379 30.5621 15.6891 30.2799L18.8494 27.2458L14.9166 24.8469L14.5654 30.8444Z" fill="#A9C9DD" fill-opacity="1.000000" fill-rule="nonzero"/>
	<path id="Vector" d="M14.9755 24.6808L25.191 32.2247C26.2504 32.9105 27.1584 32.5295 27.4612 31.1579L31.623 11.4979C32.0013 9.8215 30.942 9.05948 29.8069 9.5929L5.5166 19.0419C3.92749 19.6515 3.92749 20.6421 5.21387 21.0231L11.4946 23.0043L25.8721 13.784C26.5531 13.403 27.1584 13.5554 26.7045 14.0888L14.9755 24.6808Z" fill="#F6FBFE" fill-opacity="1.000000" fill-rule="nonzero"/>
</svg>
